<svg width="556" height="270" viewBox="0 0 556 270" fill="none" xmlns="http://www.w3.org/2000/svg">
<rect width="556" height="270" fill="#FBFBFB"/>
<rect x="33.5" y="24.5" width="489" height="221" stroke="black"/>
<path d="M110.947 66H108.639L115.315 47.8182H117.588L124.264 66H121.956L116.523 50.6946H116.381L110.947 66ZM111.8 58.8977H121.104V60.8509H111.8V58.8977ZM133.843 66V52.3636H135.939V66H133.843ZM134.909 50.0909C134.5 50.0909 134.148 49.9518 133.852 49.6737C133.562 49.3955 133.417 49.0611 133.417 48.6705C133.417 48.2798 133.562 47.9454 133.852 47.6673C134.148 47.3891 134.5 47.25 134.909 47.25C135.317 47.25 135.666 47.3891 135.956 47.6673C136.252 47.9454 136.4 48.2798 136.4 48.6705C136.4 49.0611 136.252 49.3955 135.956 49.6737C135.666 49.9518 135.317 50.0909 134.909 50.0909ZM149.435 55.4176L147.553 55.9503C147.435 55.6366 147.26 55.3318 147.029 55.0359C146.804 54.734 146.497 54.4854 146.106 54.2901C145.715 54.0948 145.215 53.9972 144.606 53.9972C143.771 53.9972 143.076 54.1895 142.519 54.5742C141.969 54.953 141.694 55.4354 141.694 56.0213C141.694 56.5421 141.883 56.9535 142.262 57.2553C142.641 57.5572 143.232 57.8087 144.037 58.0099L146.062 58.5071C147.281 58.803 148.189 59.2558 148.787 59.8654C149.385 60.4691 149.684 61.2474 149.684 62.2003C149.684 62.9815 149.459 63.6799 149.009 64.2955C148.565 64.911 147.944 65.3963 147.145 65.7514C146.346 66.1065 145.416 66.2841 144.357 66.2841C142.966 66.2841 141.815 65.9822 140.903 65.3786C139.992 64.7749 139.415 63.893 139.172 62.733L141.161 62.2358C141.35 62.9697 141.708 63.5201 142.235 63.8871C142.768 64.254 143.463 64.4375 144.321 64.4375C145.298 64.4375 146.073 64.2304 146.647 63.8161C147.227 63.3958 147.517 62.8928 147.517 62.3068C147.517 61.8333 147.352 61.4368 147.02 61.1172C146.689 60.7917 146.18 60.549 145.493 60.3892L143.221 59.8565C141.972 59.5606 141.054 59.1019 140.468 58.4805C139.888 57.8531 139.598 57.0689 139.598 56.1278C139.598 55.3584 139.814 54.6778 140.247 54.0859C140.685 53.4941 141.279 53.0295 142.031 52.6921C142.789 52.3548 143.647 52.1861 144.606 52.1861C145.955 52.1861 147.014 52.482 147.784 53.0739C148.559 53.6657 149.11 54.447 149.435 55.4176ZM165.941 52.3636V54.1392H158.59V52.3636H165.941ZM160.792 66V50.4815C160.792 49.7003 160.976 49.0492 161.343 48.5284C161.709 48.0076 162.186 47.6169 162.772 47.3565C163.358 47.0961 163.976 46.9659 164.627 46.9659C165.142 46.9659 165.562 47.0073 165.888 47.0902C166.213 47.1731 166.456 47.25 166.616 47.321L166.012 49.1321C165.906 49.0966 165.758 49.0522 165.568 48.9989C165.385 48.9457 165.142 48.919 164.84 48.919C164.148 48.919 163.648 49.0936 163.34 49.4428C163.038 49.792 162.887 50.304 162.887 50.9787V66H160.792ZM173.856 66.2841C172.625 66.2841 171.545 65.9911 170.615 65.4052C169.692 64.8192 168.97 63.9995 168.449 62.946C167.934 61.8925 167.677 60.6615 167.677 59.2528C167.677 57.8324 167.934 56.5924 168.449 55.533C168.97 54.4736 169.692 53.6509 170.615 53.065C171.545 52.479 172.625 52.1861 173.856 52.1861C175.087 52.1861 176.164 52.479 177.087 53.065C178.017 53.6509 178.739 54.4736 179.254 55.533C179.774 56.5924 180.035 57.8324 180.035 59.2528C180.035 60.6615 179.774 61.8925 179.254 62.946C178.739 63.9995 178.017 64.8192 177.087 65.4052C176.164 65.9911 175.087 66.2841 173.856 66.2841ZM173.856 64.402C174.791 64.402 175.56 64.1623 176.164 63.6829C176.768 63.2035 177.215 62.5732 177.505 61.7919C177.795 61.0107 177.94 60.1643 177.94 59.2528C177.94 58.3414 177.795 57.4921 177.505 56.7049C177.215 55.9177 176.768 55.2815 176.164 54.7962C175.56 54.3108 174.791 54.0682 173.856 54.0682C172.921 54.0682 172.151 54.3108 171.548 54.7962C170.944 55.2815 170.497 55.9177 170.207 56.7049C169.917 57.4921 169.772 58.3414 169.772 59.2528C169.772 60.1643 169.917 61.0107 170.207 61.7919C170.497 62.5732 170.944 63.2035 171.548 63.6829C172.151 64.1623 172.921 64.402 173.856 64.402ZM183.233 66V52.3636H185.257V54.4233H185.399C185.648 53.7486 186.098 53.2011 186.749 52.7809C187.4 52.3607 188.134 52.1506 188.95 52.1506C189.104 52.1506 189.297 52.1535 189.527 52.1594C189.758 52.1654 189.933 52.1742 190.051 52.1861V54.3168C189.98 54.299 189.817 54.2724 189.563 54.2369C189.314 54.1954 189.051 54.1747 188.773 54.1747C188.11 54.1747 187.518 54.3138 186.997 54.592C186.482 54.8642 186.074 55.243 185.772 55.7283C185.476 56.2077 185.328 56.7552 185.328 57.3707V66H183.233Z" fill="black"/>
<path d="M116.145 119.364C116.038 118.464 115.606 117.766 114.849 117.268C114.091 116.771 113.162 116.523 112.061 116.523C111.256 116.523 110.552 116.653 109.948 116.913C109.35 117.174 108.883 117.532 108.545 117.988C108.214 118.443 108.048 118.961 108.048 119.541C108.048 120.027 108.164 120.444 108.395 120.793C108.631 121.136 108.933 121.423 109.3 121.654C109.667 121.879 110.052 122.065 110.454 122.213C110.857 122.355 111.227 122.471 111.564 122.56L113.411 123.057C113.884 123.181 114.411 123.353 114.991 123.572C115.577 123.791 116.136 124.09 116.669 124.468C117.207 124.841 117.651 125.321 118 125.907C118.35 126.493 118.524 127.212 118.524 128.064C118.524 129.046 118.267 129.934 117.752 130.727C117.243 131.52 116.497 132.151 115.515 132.618C114.538 133.086 113.351 133.32 111.955 133.32C110.652 133.32 109.525 133.109 108.572 132.689C107.625 132.269 106.879 131.683 106.335 130.931C105.796 130.18 105.491 129.307 105.42 128.312H107.693C107.752 128.999 107.983 129.567 108.386 130.017C108.794 130.461 109.309 130.792 109.93 131.011C110.558 131.224 111.232 131.331 111.955 131.331C112.795 131.331 113.55 131.195 114.218 130.923C114.887 130.644 115.417 130.26 115.808 129.768C116.198 129.271 116.393 128.691 116.393 128.028C116.393 127.425 116.225 126.933 115.887 126.555C115.55 126.176 115.106 125.868 114.556 125.631C114.005 125.395 113.411 125.187 112.771 125.01L110.534 124.371C109.114 123.962 107.989 123.379 107.161 122.622C106.332 121.864 105.918 120.873 105.918 119.648C105.918 118.63 106.193 117.742 106.743 116.984C107.3 116.221 108.045 115.629 108.98 115.209C109.922 114.783 110.972 114.57 112.132 114.57C113.304 114.57 114.346 114.78 115.257 115.2C116.169 115.614 116.891 116.182 117.423 116.904C117.962 117.627 118.246 118.446 118.276 119.364H116.145ZM128.891 133V119.364H130.986V133H128.891ZM129.957 117.091C129.548 117.091 129.196 116.952 128.9 116.674C128.61 116.395 128.465 116.061 128.465 115.67C128.465 115.28 128.61 114.945 128.9 114.667C129.196 114.389 129.548 114.25 129.957 114.25C130.365 114.25 130.714 114.389 131.004 114.667C131.3 114.945 131.448 115.28 131.448 115.67C131.448 116.061 131.3 116.395 131.004 116.674C130.714 116.952 130.365 117.091 129.957 117.091ZM144.483 122.418L142.601 122.95C142.482 122.637 142.308 122.332 142.077 122.036C141.852 121.734 141.544 121.485 141.154 121.29C140.763 121.095 140.263 120.997 139.653 120.997C138.819 120.997 138.123 121.19 137.567 121.574C137.017 121.953 136.741 122.435 136.741 123.021C136.741 123.542 136.931 123.953 137.31 124.255C137.688 124.557 138.28 124.809 139.085 125.01L141.109 125.507C142.329 125.803 143.237 126.256 143.835 126.865C144.433 127.469 144.732 128.247 144.732 129.2C144.732 129.982 144.507 130.68 144.057 131.295C143.613 131.911 142.991 132.396 142.192 132.751C141.393 133.107 140.464 133.284 139.405 133.284C138.014 133.284 136.863 132.982 135.951 132.379C135.04 131.775 134.463 130.893 134.22 129.733L136.209 129.236C136.398 129.97 136.756 130.52 137.283 130.887C137.816 131.254 138.511 131.438 139.369 131.438C140.346 131.438 141.121 131.23 141.695 130.816C142.275 130.396 142.565 129.893 142.565 129.307C142.565 128.833 142.4 128.437 142.068 128.117C141.737 127.792 141.228 127.549 140.541 127.389L138.268 126.857C137.02 126.561 136.102 126.102 135.516 125.48C134.936 124.853 134.646 124.069 134.646 123.128C134.646 122.358 134.862 121.678 135.294 121.086C135.732 120.494 136.327 120.029 137.079 119.692C137.836 119.355 138.695 119.186 139.653 119.186C141.003 119.186 142.062 119.482 142.832 120.074C143.607 120.666 144.157 121.447 144.483 122.418ZM160.989 119.364V121.139H153.638V119.364H160.989ZM155.84 133V117.482C155.84 116.7 156.023 116.049 156.39 115.528C156.757 115.008 157.234 114.617 157.82 114.357C158.406 114.096 159.024 113.966 159.675 113.966C160.19 113.966 160.61 114.007 160.936 114.09C161.261 114.173 161.504 114.25 161.664 114.321L161.06 116.132C160.954 116.097 160.806 116.052 160.616 115.999C160.433 115.946 160.19 115.919 159.888 115.919C159.196 115.919 158.696 116.094 158.388 116.443C158.086 116.792 157.935 117.304 157.935 117.979V133H155.84ZM168.904 133.284C167.673 133.284 166.592 132.991 165.663 132.405C164.74 131.819 164.018 131 163.497 129.946C162.982 128.893 162.725 127.661 162.725 126.253C162.725 124.832 162.982 123.592 163.497 122.533C164.018 121.474 164.74 120.651 165.663 120.065C166.592 119.479 167.673 119.186 168.904 119.186C170.135 119.186 171.212 119.479 172.135 120.065C173.064 120.651 173.786 121.474 174.301 122.533C174.822 123.592 175.083 124.832 175.083 126.253C175.083 127.661 174.822 128.893 174.301 129.946C173.786 131 173.064 131.819 172.135 132.405C171.212 132.991 170.135 133.284 168.904 133.284ZM168.904 131.402C169.839 131.402 170.608 131.162 171.212 130.683C171.816 130.203 172.262 129.573 172.552 128.792C172.842 128.011 172.987 127.164 172.987 126.253C172.987 125.341 172.842 124.492 172.552 123.705C172.262 122.918 171.816 122.281 171.212 121.796C170.608 121.311 169.839 121.068 168.904 121.068C167.969 121.068 167.199 121.311 166.595 121.796C165.992 122.281 165.545 122.918 165.255 123.705C164.965 124.492 164.82 125.341 164.82 126.253C164.82 127.164 164.965 128.011 165.255 128.792C165.545 129.573 165.992 130.203 166.595 130.683C167.199 131.162 167.969 131.402 168.904 131.402ZM178.281 133V119.364H180.305V121.423H180.447C180.696 120.749 181.145 120.201 181.797 119.781C182.448 119.361 183.181 119.151 183.998 119.151C184.152 119.151 184.344 119.154 184.575 119.159C184.806 119.165 184.981 119.174 185.099 119.186V121.317C185.028 121.299 184.865 121.272 184.611 121.237C184.362 121.195 184.099 121.175 183.821 121.175C183.158 121.175 182.566 121.314 182.045 121.592C181.53 121.864 181.122 122.243 180.82 122.728C180.524 123.208 180.376 123.755 180.376 124.371V133H178.281Z" fill="black"/>
<path d="M106.202 206V187.818H117.104V189.771H108.403V195.915H116.287V197.868H108.403V206H106.202ZM127.622 206V192.364H129.717V206H127.622ZM128.687 190.091C128.279 190.091 127.927 189.952 127.631 189.674C127.341 189.395 127.196 189.061 127.196 188.67C127.196 188.28 127.341 187.945 127.631 187.667C127.927 187.389 128.279 187.25 128.687 187.25C129.095 187.25 129.445 187.389 129.735 187.667C130.031 187.945 130.179 188.28 130.179 188.67C130.179 189.061 130.031 189.395 129.735 189.674C129.445 189.952 129.095 190.091 128.687 190.091ZM143.213 195.418L141.331 195.95C141.213 195.637 141.038 195.332 140.808 195.036C140.583 194.734 140.275 194.485 139.884 194.29C139.494 194.095 138.993 193.997 138.384 193.997C137.549 193.997 136.854 194.19 136.298 194.574C135.747 194.953 135.472 195.435 135.472 196.021C135.472 196.542 135.661 196.953 136.04 197.255C136.419 197.557 137.011 197.809 137.816 198.01L139.84 198.507C141.059 198.803 141.968 199.256 142.565 199.865C143.163 200.469 143.462 201.247 143.462 202.2C143.462 202.982 143.237 203.68 142.787 204.295C142.343 204.911 141.722 205.396 140.923 205.751C140.124 206.107 139.195 206.284 138.135 206.284C136.744 206.284 135.593 205.982 134.682 205.379C133.77 204.775 133.193 203.893 132.951 202.733L134.939 202.236C135.129 202.97 135.487 203.52 136.013 203.887C136.546 204.254 137.242 204.438 138.1 204.438C139.076 204.438 139.852 204.23 140.426 203.816C141.006 203.396 141.296 202.893 141.296 202.307C141.296 201.833 141.13 201.437 140.799 201.117C140.467 200.792 139.958 200.549 139.272 200.389L136.999 199.857C135.75 199.561 134.833 199.102 134.247 198.48C133.667 197.853 133.377 197.069 133.377 196.128C133.377 195.358 133.593 194.678 134.025 194.086C134.463 193.494 135.058 193.029 135.809 192.692C136.567 192.355 137.425 192.186 138.384 192.186C139.733 192.186 140.793 192.482 141.562 193.074C142.337 193.666 142.888 194.447 143.213 195.418ZM159.72 192.364V194.139H152.369V192.364H159.72ZM154.57 206V190.482C154.57 189.7 154.754 189.049 155.121 188.528C155.488 188.008 155.964 187.617 156.55 187.357C157.136 187.096 157.755 186.966 158.406 186.966C158.921 186.966 159.341 187.007 159.666 187.09C159.992 187.173 160.234 187.25 160.394 187.321L159.791 189.132C159.684 189.097 159.536 189.052 159.347 188.999C159.163 188.946 158.921 188.919 158.619 188.919C157.926 188.919 157.426 189.094 157.118 189.443C156.816 189.792 156.666 190.304 156.666 190.979V206H154.57ZM167.634 206.284C166.403 206.284 165.323 205.991 164.394 205.405C163.47 204.819 162.748 204 162.228 202.946C161.713 201.893 161.455 200.661 161.455 199.253C161.455 197.832 161.713 196.592 162.228 195.533C162.748 194.474 163.47 193.651 164.394 193.065C165.323 192.479 166.403 192.186 167.634 192.186C168.865 192.186 169.942 192.479 170.866 193.065C171.795 193.651 172.517 194.474 173.032 195.533C173.553 196.592 173.813 197.832 173.813 199.253C173.813 200.661 173.553 201.893 173.032 202.946C172.517 204 171.795 204.819 170.866 205.405C169.942 205.991 168.865 206.284 167.634 206.284ZM167.634 204.402C168.569 204.402 169.339 204.162 169.942 203.683C170.546 203.203 170.993 202.573 171.283 201.792C171.573 201.011 171.718 200.164 171.718 199.253C171.718 198.341 171.573 197.492 171.283 196.705C170.993 195.918 170.546 195.281 169.942 194.796C169.339 194.311 168.569 194.068 167.634 194.068C166.699 194.068 165.93 194.311 165.326 194.796C164.722 195.281 164.275 195.918 163.985 196.705C163.695 197.492 163.55 198.341 163.55 199.253C163.55 200.164 163.695 201.011 163.985 201.792C164.275 202.573 164.722 203.203 165.326 203.683C165.93 204.162 166.699 204.402 167.634 204.402ZM177.011 206V192.364H179.036V194.423H179.178C179.426 193.749 179.876 193.201 180.527 192.781C181.178 192.361 181.912 192.151 182.729 192.151C182.883 192.151 183.075 192.154 183.306 192.159C183.537 192.165 183.711 192.174 183.83 192.186V194.317C183.759 194.299 183.596 194.272 183.341 194.237C183.093 194.195 182.829 194.175 182.551 194.175C181.888 194.175 181.296 194.314 180.776 194.592C180.261 194.864 179.852 195.243 179.55 195.728C179.254 196.208 179.107 196.755 179.107 197.371V206H177.011Z" fill="black"/>
<g clip-path="url(#clip0_24_1659)">
<path d="M262.513 46.725C262.701 45.491 262.531 43.886 261.052 43.1645C260.064 42.7085 258.846 42.866 257.715 42.965C257.476 42.9895 257.22 43.0215 256.983 43.0585C256.155 43.1955 255.352 43.4235 254.601 43.726C253.601 44.134 252.593 44.638 251.706 45.196C250.809 45.763 250.012 46.408 249.281 47.104C247.593 48.6625 246.438 50.5145 245.519 52.41C244.218 55.1485 243.196 58.168 244.07 61.0745C244.927 63.867 247.781 65.782 251.402 66.271C254.385 66.696 258.127 66.1695 259.653 63.9265C260.052 63.3375 260.322 62.7095 260.563 62.0605C260.887 61.1805 261.155 60.2785 261.394 59.3795C262.099 56.6765 262.573 53.9165 262.634 51.16C262.634 50.754 262.641 50.272 262.555 49.907C262.722 50.283 263.379 50.465 263.847 50.278C264.061 50.194 264.163 50.1 264.246 49.988C264.153 50.2365 264.11 50.496 264.055 50.7765C263.82 52.1365 263.705 53.524 263.591 54.901C263.458 56.7425 263.348 58.594 263.419 60.436C263.46 61.3165 263.547 62.1585 263.951 62.9685C264.428 63.943 265.289 64.8035 266.42 65.377C267.075 65.7245 267.81 65.9795 268.593 66.012C270.365 66.0815 271.851 65.1055 273.042 64.17C274.249 63.235 275.153 62.1045 275.714 60.8425L275.901 60.8805C275.643 61.9275 275.1 62.9505 274.336 63.8555C272.249 66.2235 269.337 68.0465 265.64 66.3475C263.584 65.451 262.175 63.776 261.765 61.99C261.442 60.5405 261.44 59.1 261.429 57.654C261.45 55.2735 261.585 52.908 262.014 50.544C262.062 50.2995 262.114 50.058 262.197 49.789C262.312 49.4265 262.468 49.045 262.961 48.8585C263.637 48.61 264.35 48.947 264.512 49.476C264.624 49.8195 264.626 50.126 264.638 50.455C264.648 51.1865 264.586 51.912 264.51 52.633C264.173 55.4785 263.554 58.294 262.518 61.0405C262.072 62.1795 261.575 63.3705 260.746 64.419C260.221 65.07 259.489 65.634 258.642 66.033C256.461 67.065 253.726 67.16 251.276 66.765C247.447 66.147 244.461 64.151 243.308 61.239C241.919 57.6785 242.969 53.659 244.77 50.2955C246.292 47.505 248.91 44.9495 252.316 43.4125C253.393 42.9205 254.58 42.4715 255.82 42.245C256.367 42.142 256.936 42.076 257.498 42.049C258.779 41.998 260.194 41.938 261.334 42.4915C262.577 43.0975 263.052 44.2615 262.997 45.3375C262.978 45.82 262.883 46.2955 262.704 46.757L262.515 46.7235L262.513 46.725Z" fill="black"/>
</g>
<g clip-path="url(#clip1_24_1659)">
<path d="M303.513 186.536C303.701 185.351 303.531 183.811 302.052 183.118C301.064 182.68 299.846 182.831 298.715 182.926C298.476 182.95 298.22 182.981 297.983 183.016C297.155 183.148 296.352 183.367 295.601 183.657C294.601 184.049 293.593 184.532 292.706 185.068C291.809 185.612 291.012 186.232 290.281 186.9C288.593 188.396 287.438 190.174 286.519 191.994C285.218 194.623 284.196 197.521 285.07 200.311C285.927 202.992 288.781 204.831 292.402 205.3C295.385 205.708 299.127 205.203 300.653 203.049C301.052 202.484 301.322 201.881 301.563 201.258C301.887 200.413 302.155 199.547 302.394 198.684C303.099 196.089 303.573 193.44 303.634 190.794C303.634 190.404 303.641 189.941 303.555 189.591C303.722 189.952 304.379 190.126 304.847 189.947C305.061 189.866 305.163 189.776 305.246 189.668C305.153 189.907 305.11 190.156 305.055 190.425C304.82 191.731 304.705 193.063 304.591 194.385C304.458 196.153 304.348 197.93 304.419 199.699C304.46 200.544 304.547 201.352 304.951 202.13C305.428 203.065 306.289 203.891 307.42 204.442C308.075 204.775 308.81 205.02 309.593 205.051C311.365 205.118 312.851 204.181 314.042 203.283C315.249 202.386 316.153 201.3 316.714 200.089L316.901 200.125C316.643 201.13 316.1 202.112 315.336 202.981C313.249 205.255 310.337 207.005 306.64 205.374C304.584 204.513 303.175 202.905 302.765 201.19C302.442 199.799 302.44 198.416 302.429 197.028C302.45 194.743 302.585 192.472 303.014 190.202C303.062 189.967 303.114 189.736 303.197 189.477C303.312 189.129 303.468 188.763 303.961 188.584C304.637 188.346 305.35 188.669 305.512 189.177C305.624 189.507 305.626 189.801 305.638 190.117C305.648 190.819 305.586 191.515 305.51 192.208C305.173 194.939 304.554 197.642 303.518 200.279C303.072 201.372 302.575 202.516 301.746 203.522C301.221 204.147 300.489 204.689 299.642 205.072C297.461 206.062 294.726 206.154 292.276 205.774C288.447 205.181 285.461 203.265 284.308 200.469C282.919 197.051 283.969 193.193 285.77 189.964C287.292 187.285 289.91 184.831 293.316 183.356C294.393 182.884 295.58 182.453 296.82 182.235C297.367 182.136 297.936 182.073 298.498 182.047C299.779 181.998 301.194 181.94 302.334 182.472C303.577 183.054 304.052 184.171 303.997 185.204C303.978 185.667 303.883 186.124 303.704 186.567L303.515 186.535L303.513 186.536Z" fill="black"/>
</g>
<g clip-path="url(#clip2_24_1659)">
<path d="M374.927 46.725C375.11 45.491 374.944 43.886 373.508 43.1645C372.547 42.7085 371.365 42.866 370.266 42.965C370.033 42.9895 369.785 43.0215 369.555 43.0585C368.751 43.1955 367.971 43.4235 367.241 43.726C366.27 44.134 365.29 44.638 364.429 45.196C363.557 45.763 362.783 46.408 362.073 47.104C360.433 48.6625 359.311 50.5145 358.419 52.41C357.155 55.1485 356.162 58.168 357.011 61.0745C357.844 63.867 360.616 65.782 364.133 66.271C367.031 66.696 370.666 66.1695 372.149 63.9265C372.536 63.3375 372.798 62.7095 373.032 62.0605C373.347 61.1805 373.607 60.2785 373.84 59.3795C374.525 56.6765 374.985 53.9165 375.045 51.16C375.045 50.754 375.052 50.272 374.967 49.907C375.13 50.283 375.768 50.465 376.223 50.278C376.431 50.194 376.53 50.1 376.611 49.988C376.52 50.2365 376.479 50.496 376.425 50.7765C376.196 52.1365 376.084 53.524 375.974 54.901C375.845 56.7425 375.738 58.594 375.807 60.436C375.846 61.3165 375.931 62.1585 376.324 62.9685C376.787 63.943 377.623 64.8035 378.722 65.377C379.358 65.7245 380.073 65.9795 380.833 66.012C382.555 66.0815 383.998 65.1055 385.155 64.17C386.328 63.235 387.205 62.1045 387.75 60.8425L387.933 60.8805C387.682 61.9275 387.154 62.9505 386.412 63.8555C384.385 66.2235 381.556 68.0465 377.964 66.3475C375.968 65.451 374.598 63.776 374.2 61.99C373.886 60.5405 373.885 59.1 373.874 57.654C373.894 55.2735 374.026 52.908 374.442 50.544C374.489 50.2995 374.54 50.058 374.62 49.789C374.731 49.4265 374.883 49.045 375.362 48.8585C376.018 48.61 376.712 48.947 376.869 49.476C376.977 49.8195 376.979 50.126 376.991 50.455C377.001 51.1865 376.941 51.912 376.867 52.633C376.54 55.4785 375.938 58.294 374.932 61.0405C374.498 62.1795 374.016 63.3705 373.211 64.419C372.7 65.07 371.989 65.634 371.166 66.033C369.048 67.065 366.391 67.16 364.011 66.765C360.292 66.147 357.391 64.151 356.27 61.239C354.921 57.6785 355.941 53.659 357.691 50.2955C359.17 47.505 361.713 44.9495 365.022 43.4125C366.068 42.9205 367.221 42.4715 368.425 42.245C368.957 42.142 369.509 42.076 370.055 42.049C371.3 41.998 372.674 41.938 373.781 42.4915C374.989 43.0975 375.45 44.2615 375.397 45.3375C375.379 45.82 375.286 46.2955 375.112 46.757L374.929 46.7235L374.927 46.725Z" fill="black"/>
</g>
<path d="M277.836 43.7679C276.12 47.3653 275.337 51.3105 275.916 55.1908C276.017 55.8351 276.158 56.5033 276.312 57.1382C277.008 59.8921 278.188 63.127 280.568 65.0781C284.764 68.4846 291.157 66.4971 293.547 62.2659C294.452 60.7075 294.695 58.915 294.546 57.1798C294.321 54.5423 293.266 52.0365 292.121 49.6143C291.437 48.2207 290.618 46.9119 289.738 45.6009C289.533 45.2952 289.253 44.8776 289.06 44.5505C288.893 44.2671 288.726 43.9172 288.817 43.5802C288.945 43.0519 289.594 42.7586 290.144 42.9656C290.289 43.0186 290.397 43.0847 290.511 43.1689C291.003 43.5714 291.401 44.0675 291.832 44.4907C293.32 46.0263 294.969 47.3617 297.254 47.7725C299.095 48.1131 301.007 47.8775 302.802 47.4225C303.836 47.1573 304.852 46.8167 305.842 46.4355L306.441 46.201L306.527 46.3373C305.801 46.7777 305.045 47.1833 304.258 47.5447C301.453 48.8483 298.02 49.5618 294.975 48.4739C293.229 47.8619 291.788 46.7345 290.529 45.5432C290.115 45.1621 289.759 44.7606 289.342 44.4179C289.344 44.4195 289.346 44.4211 289.349 44.4226C289.35 44.4231 289.365 44.4335 289.378 44.4403C289.41 44.4559 289.424 44.4647 289.472 44.4819C290.038 44.6847 290.698 44.2505 290.62 43.6967L290.614 43.665C290.612 43.6525 290.607 43.6374 290.607 43.6359C290.606 43.6338 290.606 43.6312 290.604 43.6291C290.606 43.6286 290.617 43.6541 290.634 43.6827C291.293 44.7185 292.056 45.7252 292.669 46.8001C293.513 48.2056 294.162 49.7001 294.724 51.2149C295.606 53.5944 296.266 56.1294 295.96 58.6514C295.85 59.5687 295.595 60.4844 295.202 61.3382C293.977 63.9673 291.369 65.9922 288.369 66.8622C284.451 67.9864 280.537 66.9178 277.982 64.037C275.848 61.6518 274.887 58.6243 274.468 55.6442C274.388 55.0519 274.342 54.4326 274.336 53.8367C274.293 51.0453 275.008 48.2483 276.362 45.7356C276.746 45.0243 277.184 44.3373 277.684 43.691L277.837 43.7664L277.836 43.7679Z" fill="black"/>
<g clip-path="url(#clip3_24_1659)">
<path d="M305.484 51.8121C305.904 50.4856 306.47 49.2066 307.139 47.9811C308.258 45.9546 309.8 44.0476 311.956 42.9891C315.627 41.2026 319.916 42.3946 323.019 44.7241C325.848 46.8641 328.109 49.8451 328.918 53.2656C329.563 55.9706 328.992 58.8751 327.497 61.2316C324.71 65.6486 319.227 67.7856 314.039 66.7401C312.008 66.3336 310.05 65.4901 308.444 64.2071C304.445 61.0196 304.035 56.3551 305.484 51.8121ZM305.632 51.8536C304.47 55.6121 305.084 59.3671 308.107 62.1141C311.445 65.1436 316.551 66.2086 320.869 64.7571C323.493 63.8686 325.732 62.0151 327.147 59.7016C328.31 57.7896 328.833 55.5666 328.408 53.3651C327.585 48.9261 323.673 45.4986 319.406 44.1161C317.339 43.4366 315.055 43.2121 312.954 43.8616C309.29 45.0106 306.743 48.3831 305.632 51.8536H305.632Z" fill="black"/>
</g>
<g clip-path="url(#clip4_24_1659)">
<path d="M420.484 51.8121C420.904 50.4856 421.47 49.2066 422.139 47.9811C423.258 45.9546 424.8 44.0476 426.956 42.9891C430.627 41.2026 434.916 42.3946 438.019 44.7241C440.848 46.8641 443.109 49.8451 443.918 53.2656C444.563 55.9706 443.992 58.8751 442.497 61.2316C439.71 65.6486 434.227 67.7856 429.039 66.7401C427.008 66.3336 425.05 65.4901 423.444 64.2071C419.445 61.0196 419.035 56.3551 420.484 51.8121ZM420.632 51.8536C419.47 55.6121 420.084 59.3671 423.107 62.1141C426.445 65.1436 431.551 66.2086 435.869 64.7571C438.493 63.8686 440.732 62.0151 442.147 59.7016C443.31 57.7896 443.833 55.5666 443.408 53.3651C442.585 48.9261 438.673 45.4986 434.406 44.1161C432.339 43.4366 430.055 43.2121 427.954 43.8616C424.29 45.0106 421.743 48.3831 420.632 51.8536H420.632Z" fill="black"/>
</g>
<path d="M350.722 45.8564C349.178 43.4893 346.677 42.4039 343.519 42.9795C342.454 43.1649 341.464 43.4959 340.457 43.8655C339.549 44.1998 338.689 44.6202 337.883 45.1066C335.583 46.5108 333.696 48.4832 332.568 50.6889C331.764 52.2723 331.359 54.0064 331.435 55.7303C331.619 58.6617 332.907 61.6717 335.513 63.6701C337.206 64.9779 339.369 65.8135 341.624 66.1161C344.687 66.4949 347.961 65.893 350.466 64.307C352.5 63.027 353.955 61.2004 354.748 59.1551L354.862 59.1788C354.599 60.4777 354.002 61.7548 353.132 62.8712C352.648 63.5005 352.063 64.076 351.421 64.5941C350.18 65.5822 348.666 66.325 347.043 66.7606C344.901 67.3345 342.553 67.4566 340.367 66.987C336.87 66.262 333.773 64.1793 332.273 61.3961C331.592 60.157 331.256 58.8343 331.073 57.5097C330.851 55.8943 330.993 54.25 331.431 52.6696C332.226 49.8897 333.948 46.957 336.455 44.9958C337.373 44.2823 338.426 43.6791 339.56 43.2375C340.682 42.8105 341.859 42.431 343.082 42.2317C345.691 41.7865 348.256 42.3723 349.859 44.2424C350.276 44.7235 350.596 45.2555 350.829 45.8161L350.722 45.8567V45.8564Z" fill="black"/>
<path d="M412.014 28.8719C411.283 32.1893 410.385 35.7127 409.712 39.0321C409.603 39.4925 409.494 40.0122 409.383 40.4756C409.043 41.9135 408.672 43.378 408.441 44.8339C408.228 46.1762 408.158 47.5403 408.179 48.895C408.221 51.2398 408.629 53.5776 408.896 55.9084C409.082 57.5813 409.253 59.3914 409.497 61.0504C409.723 62.4634 409.867 63.864 410.406 65.1898C410.566 65.5195 410.697 65.7704 411.039 65.9379C412.421 66.544 414.657 65.2751 415.809 64.5887C416.98 63.8755 418.075 63.0769 419.142 62.2489L419.278 62.3447C417.814 64.261 415.221 66.8113 412.533 67.3859C411.403 67.6318 410.057 67.4119 409.309 66.6008C408.111 65.3165 407.843 62.8061 407.668 61.209C407.459 58.7395 407.36 56.2147 407.417 53.7417C407.485 51.5091 407.617 49.2616 407.679 47.0286C407.704 46.033 407.724 45.0374 407.737 44.0414C407.754 42.543 407.806 41.0332 408.034 39.5458C408.18 38.5527 408.417 37.5711 408.676 36.5955C409.13 34.8912 409.719 33.2083 410.441 31.5728C410.859 30.639 411.311 29.7168 411.848 28.824L412.014 28.8719H412.014Z" fill="black"/>
<path d="M407.014 46.1632C405.519 45.194 403.732 44.4179 401.809 44.5117C400.305 44.583 398.927 45.2499 397.787 46.0829C396.436 47.062 395.241 48.1857 394.175 49.4157C394.039 49.5704 393.859 49.7968 393.73 49.9574C393.602 50.1125 393.443 50.3554 393.323 50.519C392.433 51.8593 391.905 53.3791 391.778 54.9143C391.713 55.7847 391.775 56.684 391.863 57.5469C392.086 59.5091 392.723 61.4828 394.428 62.8704C395.531 63.7602 396.903 64.4431 398.379 64.7518C401.659 65.4167 404.636 63.9772 406.556 61.7387C406.71 61.5606 406.861 61.3776 406.997 61.189L407.159 61.2464C406.942 61.9147 406.583 62.5482 406.146 63.1348C403.854 66.2352 399.341 67.2727 395.535 65.5234C392.608 64.2032 390.904 61.7521 390.675 58.9759C390.592 58.0447 390.674 57.1115 390.805 56.1952C391.148 53.4594 392.309 50.8433 393.838 48.4351C394.594 47.2181 395.524 45.9976 396.759 45.0678C398.546 43.7191 400.839 42.9934 403.208 43.566C404.284 43.8319 405.295 44.3446 406.093 45.0045C406.487 45.3282 406.842 45.6798 407.142 46.0604L407.015 46.1632H407.014Z" fill="black"/>
<path d="M267.829 110.509C266.102 109.742 264.038 109.685 262.56 110.753C261.872 111.235 261.338 111.888 260.891 112.514C260.559 112.988 260.331 113.481 260.189 114.005C260.058 114.495 259.961 115.052 260.02 115.542C260.03 115.61 260.046 115.671 260.062 115.709C260.075 115.747 260.098 115.759 260.062 115.711C259.979 115.611 259.81 115.541 259.654 115.524C259.565 115.514 259.506 115.521 259.479 115.525C259.451 115.53 259.453 115.53 259.465 115.525C259.477 115.519 259.501 115.509 259.531 115.494C259.875 115.318 260.141 115.114 260.502 114.901C260.976 114.613 261.51 114.375 262.058 114.186C264.186 113.466 266.78 113.441 268.938 114.029C272.192 115.022 273.475 117.979 274.173 120.388C274.722 122.369 274.98 124.397 274.914 126.423C274.803 129.914 273.541 133.556 270.31 136.124C265.447 140.099 256.838 140.773 250.953 137.746C249.528 137.033 248.295 136.102 247.29 135.051C244.731 132.52 243.476 129.421 245.562 126.429C246.52 125.092 247.972 124.032 249.731 123.361C250.958 122.924 252.363 122.737 253.681 122.832L253.684 123.024C252.665 123.121 251.689 123.35 250.82 123.709C249.958 124.054 249.21 124.566 248.57 125.125C247.009 126.462 246.191 128.31 246.647 130.086C246.998 131.51 248.053 132.748 249.264 133.859C249.855 134.426 250.525 134.945 251.261 135.398C255.325 137.907 261.314 138.408 265.984 136.593C272.68 133.964 275.039 128.344 273.891 122.876C273.481 120.975 272.676 119.08 271.277 117.473C270.525 116.638 269.536 115.836 268.252 115.542C267.388 115.357 266.453 115.32 265.558 115.341C264.192 115.387 262.907 115.631 261.817 116.239C261.108 116.625 260.381 117.219 259.397 117.132C258.012 116.964 257.882 115.781 258.015 114.943C258.207 113.624 258.847 112.36 259.929 111.328C260.781 110.455 261.909 109.654 263.322 109.368C264.693 109.069 266.208 109.333 267.353 109.966C267.575 110.085 267.784 110.215 267.978 110.356L267.829 110.51L267.829 110.509Z" fill="black"/>
<path d="M335.315 180.195C333.902 179.524 332.213 179.475 331.004 180.409C330.441 180.83 330.004 181.402 329.638 181.95C329.367 182.365 329.18 182.796 329.064 183.255C328.957 183.683 328.877 184.171 328.926 184.599C328.934 184.658 328.947 184.712 328.96 184.745C328.971 184.778 328.99 184.789 328.96 184.747C328.892 184.66 328.754 184.598 328.626 184.583C328.553 184.575 328.505 184.581 328.483 184.585C328.46 184.588 328.461 184.588 328.471 184.584C328.481 184.579 328.501 184.571 328.525 184.558C328.806 184.403 329.024 184.225 329.32 184.039C329.707 183.787 330.145 183.578 330.593 183.413C332.334 182.782 334.456 182.761 336.222 183.276C338.885 184.144 339.934 186.732 340.505 188.839C340.954 190.573 341.166 192.348 341.111 194.12C341.021 197.174 339.988 200.361 337.345 202.609C333.366 206.087 326.322 206.676 321.507 204.028C320.341 203.404 319.332 202.59 318.51 201.67C316.416 199.455 315.39 196.744 317.096 194.126C317.88 192.955 319.068 192.028 320.507 191.441C321.511 191.058 322.661 190.895 323.739 190.978L323.741 191.146C322.908 191.231 322.109 191.431 321.398 191.746C320.693 192.047 320.081 192.495 319.558 192.984C318.28 194.154 317.611 195.772 317.984 197.325C318.271 198.572 319.134 199.654 320.125 200.627C320.608 201.122 321.157 201.577 321.759 201.974C325.084 204.169 329.985 204.607 333.805 203.019C339.284 200.718 341.214 195.801 340.274 191.016C339.939 189.353 339.28 187.695 338.136 186.289C337.521 185.558 336.711 184.856 335.661 184.599C334.953 184.437 334.189 184.405 333.457 184.423C332.339 184.464 331.287 184.677 330.396 185.209C329.816 185.547 329.22 186.066 328.416 185.99C327.282 185.843 327.176 184.809 327.285 184.075C327.442 182.921 327.965 181.815 328.851 180.912C329.548 180.148 330.471 179.448 331.627 179.197C332.749 178.935 333.989 179.166 334.926 179.72C335.107 179.824 335.278 179.938 335.436 180.061L335.314 180.196L335.315 180.195Z" fill="black"/>
<line x1="2.5" y1="-2.5" x2="224.959" y2="-2.5" transform="matrix(0.999989 0.00464476 -0.00465747 0.999989 229.542 75.0186)" stroke="#DDDDDD" stroke-width="5" stroke-linecap="round" stroke-dasharray="8 8"/>
<line x1="226.5" y1="147.5" x2="379.5" y2="147.5" stroke="#DDDDDD" stroke-width="5" stroke-linecap="round" stroke-dasharray="8 8"/>
<line x1="226.5" y1="210.5" x2="392.5" y2="210.5" stroke="#DDDDDD" stroke-width="5" stroke-linecap="round" stroke-dasharray="8 8"/>
<path d="M279.199 111.198C279.771 115.71 279.985 120.249 279.915 124.787C279.919 127.097 280.292 129.42 281.081 131.629C281.513 132.834 282.095 133.995 282.881 135.059C283.337 135.699 283.806 136.318 284.414 136.853C284.804 137.208 285.263 137.516 285.726 137.799C287.594 138.982 290.012 139.501 292.191 138.596C293.81 137.938 295.056 136.713 295.876 135.367C296.142 134.917 296.302 134.43 296.413 133.919C296.635 132.888 296.728 131.823 296.831 130.773C297.168 127.602 297.225 124.42 297.035 121.242C296.861 118.059 296.779 114.838 296.733 111.655L296.726 111.262V111.243C296.778 111.408 296.608 110.851 296.843 111.611C298.002 113.032 299.18 110.695 298.727 111.257C298.727 111.315 298.726 111.495 298.726 111.557C298.75 115.51 298.825 119.515 299.059 123.462C299.154 125.044 299.261 126.628 299.404 128.208C299.538 129.74 299.758 131.273 300.297 132.728C300.745 133.92 301.296 135.096 302.144 136.093C302.637 136.669 303.293 137.121 304.016 137.468C304.508 137.707 305.034 137.897 305.576 138.015C308.597 138.717 311.363 136.837 312.18 134.373L312.385 134.411L312.304 134.812L312.188 135.21C311.737 136.554 310.715 137.763 309.28 138.472C308.109 139.065 306.663 139.267 305.321 139.062C303.632 138.802 302.019 138.074 300.899 136.956C299.454 135.468 298.506 133.496 297.941 131.638C297.469 130.039 297.295 128.407 297.11 126.777C296.507 121.596 296.528 116.379 296.724 111.179C296.271 111.732 297.452 109.35 298.612 110.804C298.847 111.58 298.677 111.04 298.73 111.222C298.669 114.531 298.606 117.922 298.476 121.235C298.392 124.43 297.992 127.657 297.537 130.831C297.39 131.89 297.271 132.951 297.038 134.022C296.917 134.562 296.735 135.109 296.449 135.607C294.973 138.146 292.196 140.236 288.701 139.971C287.356 139.876 286.069 139.455 284.917 138.868C284.334 138.577 283.783 138.253 283.281 137.864C282.461 137.238 281.834 136.492 281.237 135.728C279.631 133.69 278.853 131.267 278.459 128.866C278.195 127.24 278.147 125.583 278.286 123.948C278.579 119.778 278.724 115.381 278.99 111.202L279.201 111.197L279.199 111.198Z" fill="black"/>
<path d="M315.131 112.565C316.095 115.074 316.739 117.664 317.146 120.272C317.695 123.921 317.736 127.604 317.806 131.271C317.836 133.357 317.821 135.466 317.701 137.552L317.676 137.952L317.657 138.161L317.643 138.285L317.636 138.334C317.628 138.362 317.64 138.356 317.595 138.487C316.074 139.66 315.544 137.885 315.871 138.457C315.821 138.293 315.803 138.107 315.779 137.943C315.58 136.228 315.556 134.506 315.58 132.788C315.709 128.579 316.027 124.362 317.342 120.271C317.686 119.245 318.103 118.235 318.648 117.264C319.459 115.794 320.642 114.38 322.218 113.354C323.847 112.268 325.952 111.472 328.12 111.719C331.446 112.094 333.565 114.611 334.7 116.98C335.73 119.081 335.461 120.615 335.267 122.764C335.133 124.248 335.081 125.899 335.061 127.394C335.034 129.048 334.986 130.732 335.174 132.358C335.261 133.072 335.409 133.804 335.66 134.492C336.485 136.787 338.711 139.032 341.708 139.475C346.013 140.146 348.56 137.524 349.104 134.296C349.174 133.913 349.21 133.528 349.224 133.141L349.444 133.13C349.53 133.655 349.552 134.188 349.518 134.722C349.365 137.625 347.332 140.33 343.583 140.757C342.174 140.922 340.719 140.776 339.398 140.351C337.011 139.55 335.176 137.901 334.086 136.025C333.385 134.812 333.027 133.444 332.867 132.161C332.657 130.57 332.668 128.96 332.685 127.366C332.7 126.326 332.732 125.233 332.81 124.198C332.847 123.683 332.902 123.125 332.961 122.611C333.107 121.213 333.46 119.617 332.968 118.26C332.365 116.491 331.163 114.548 329.22 113.58C327.797 112.879 326.084 112.976 324.59 113.527C321.111 114.768 319.124 117.568 318.056 120.439C316.003 126.043 316.452 132.036 317.515 137.75L317.555 137.931L317.575 138.016C317.582 138.041 317.59 138.069 317.593 138.075C317.921 138.621 317.405 136.91 315.89 138.049C315.851 138.164 315.865 138.142 315.859 138.154C315.858 138.16 315.859 138.155 315.859 138.154L315.86 138.083L315.861 137.901C315.847 135.713 315.81 133.456 315.842 131.273C315.843 128.3 315.98 123.274 315.801 120.363C315.664 117.767 315.343 115.191 314.915 112.602L315.131 112.563V112.565Z" fill="black"/>
<path d="M362.891 190.129C361.595 190.578 359.26 190.734 357.91 190.454C357.102 190.282 356.294 189.927 355.472 189.846C355.061 189.801 354.649 189.802 354.236 189.836C353.408 189.899 352.587 190.156 351.772 190.3C351.416 190.369 350.912 190.42 350.548 190.463C349.735 190.56 348.925 190.673 348.105 190.684C346.86 190.699 345.617 190.61 344.385 190.41C343.964 190.337 343.542 190.257 343.11 190.127L343.086 189.931C343.477 189.713 343.876 189.548 344.278 189.397C345.86 188.833 347.542 188.5 349.233 188.531C350.074 188.565 350.912 188.591 351.748 188.706C352.169 188.766 352.585 188.86 353 188.952C353.823 189.137 354.648 189.258 355.49 189.209C356.321 189.173 357.166 188.885 358.008 188.803C358.85 188.72 359.682 188.857 360.503 189.026C361.348 189.219 362.16 189.477 362.914 189.931L362.89 190.127L362.891 190.129Z" fill="black"/>
<path d="M354.337 176.55C353.82 179.898 353.18 183.191 352.75 186.541C352.391 189.265 351.421 191.978 351.828 194.744C351.873 195.016 351.928 195.353 351.992 195.623C352.068 195.91 352.13 196.205 352.231 196.484C352.657 197.856 353.449 199.093 354.284 200.261C354.487 200.544 354.709 200.828 354.932 201.095C355.659 201.966 356.502 202.728 357.493 203.266C358.987 204.05 360.757 204.435 362.445 204.498C365.884 204.616 368.724 202.857 369.843 199.729C370.007 199.283 370.143 198.817 370.226 198.349L370.434 198.341C370.536 198.841 370.552 199.346 370.52 199.856C370.418 201.43 369.754 202.985 368.61 204.151C366.654 206.19 363.529 206.964 360.723 206.477C359.06 206.203 357.441 205.599 356.08 204.636C354.72 203.692 353.703 202.38 353.037 200.921C352.618 200.034 352.235 199.038 351.941 198.103C351.501 196.672 351.227 195.201 351.07 193.72C350.807 191.268 350.634 188.783 350.894 186.328C351.005 185.344 351.19 184.369 351.414 183.402C351.995 180.996 352.842 178.634 354.141 176.486L354.339 176.551L354.337 176.55Z" fill="black"/>
<path d="M274.599 186.155C267.895 189.126 261.542 193.199 256.285 198.636C254.166 200.865 251.962 203.128 250.155 205.629C247.831 208.815 246.48 212.518 246.89 216.601C246.939 217.034 246.988 217.48 247.071 217.908C247.173 218.532 247.341 219.237 247.526 219.838C247.625 220.222 247.818 220.721 247.946 221.094L248.198 221.705L248.261 221.859L248.293 221.936L248.328 222.01L248.471 222.308C248.55 222.458 248.674 222.753 248.763 222.901C248.863 223.077 249.133 223.594 249.248 223.763C249.335 223.896 249.507 224.189 249.594 224.324C249.746 224.562 250.004 224.906 250.155 225.134C250.386 225.416 250.729 225.887 250.98 226.149C251.103 226.278 251.287 226.511 251.417 226.634C253.701 229.045 256.644 230.524 259.778 231.072C267.657 232.421 276.615 228.038 278.561 219.118C279.375 215.606 279.196 211.909 278.612 208.367C278.345 206.813 278.039 205.241 277.577 203.74C276.078 198.723 273.236 194.326 270.506 190C270.164 189.457 269.755 188.849 269.396 188.319C267.459 185.434 265.153 182.723 263.932 179.339C263.685 178.7 263.442 177.946 263.24 177.289C262.184 173.812 261.112 169.82 262.548 166.272C263.973 162.852 267.676 161.282 270.957 161.606C275.775 162.001 279.299 166.618 278.934 171.793C278.869 172.747 278.67 173.686 278.357 174.576C278.337 174.635 278.276 174.665 278.221 174.642C278.17 174.621 278.143 174.562 278.157 174.506C278.823 171.84 278.413 168.955 276.977 166.714C275.102 163.723 271.704 162.501 268.516 163.4C266.691 163.901 264.942 165.123 264.221 167.063C263.115 170.151 264.383 173.868 265.357 176.86C265.415 177.044 265.619 177.609 265.688 177.806C266.069 178.828 266.518 179.82 267.048 180.754C268.157 182.684 269.571 184.446 270.828 186.294C272.128 188.186 273.33 190.166 274.511 192.151C277.017 196.359 279.229 200.945 280.107 205.923C280.939 210.4 281.214 215.121 279.945 219.542C278.265 225.7 273.427 229.789 267.826 231.287C264.967 232.076 261.937 232.213 259.031 231.654C254.929 230.867 251.257 228.651 248.622 225.123C248.429 224.852 248.193 224.529 248.013 224.252C247.878 224.023 247.568 223.568 247.453 223.341C247.345 223.142 247.169 222.832 247.061 222.636C246.998 222.504 246.7 221.895 246.628 221.743C245.115 218.386 244.6 214.52 245.501 210.881C246.942 205.183 251.31 201.144 255.146 197.29C259.388 193.201 264.323 189.967 269.601 187.722C270.53 187.324 271.717 186.873 272.663 186.536C273.251 186.349 273.939 186.119 274.529 185.937C274.585 185.92 274.644 185.955 274.66 186.016C274.675 186.073 274.647 186.132 274.597 186.153L274.599 186.155Z" fill="black"/>
<defs>
<clipPath id="clip0_24_1659">
<rect width="35" height="25" fill="white" transform="translate(242 42)"/>
</clipPath>
<clipPath id="clip1_24_1659">
<rect width="35" height="24" fill="white" transform="translate(283 182)"/>
</clipPath>
<clipPath id="clip2_24_1659">
<rect width="34" height="25" fill="white" transform="translate(355 42)"/>
</clipPath>
<clipPath id="clip3_24_1659">
<rect width="27" height="25" fill="white" transform="translate(304 42)"/>
</clipPath>
<clipPath id="clip4_24_1659">
<rect width="27" height="25" fill="white" transform="translate(419 42)"/>
</clipPath>
</defs>
</svg>
