<svg width="1280" height="804" viewBox="0 0 1280 804" fill="none" xmlns="http://www.w3.org/2000/svg">
<g clip-path="url(#clip0_20_1425)">
<rect width="1280" height="804" fill="#FBFBFB"/>
<line y1="11.5" x2="1280" y2="11.5" stroke="#BBBBBB"/>
<line y1="227.5" x2="1280" y2="227.5" stroke="#BBBBBB"/>
<line y1="443.5" x2="1280" y2="443.5" stroke="#BBBBBB"/>
<line x1="-3" y1="704.5" x2="255" y2="704.5" stroke="#BBBBBB"/>
<line x1="361" y1="704.5" x2="538" y2="704.5" stroke="#BBBBBB"/>
<line x1="372" y1="692.5" x2="699" y2="692.5" stroke="#BBBBBB"/>
<line x1="1046" y1="620.5" x2="1277" y2="620.5" stroke="#BBBBBB"/>
<line x1="1031" y1="632.5" x2="1277" y2="632.5" stroke="#BBBBBB"/>
<line x1="1017" y1="644.5" x2="1180" y2="644.5" stroke="#BBBBBB"/>
<line x1="1001" y1="656.5" x2="1091" y2="656.5" stroke="#BBBBBB"/>
<line x1="989" y1="667.5" x2="1033" y2="667.5" stroke="#BBBBBB"/>
<line x1="381" y1="680.5" x2="746" y2="680.5" stroke="#BBBBBB"/>
<line y1="35.5" x2="1280" y2="35.5" stroke="#BBBBBB"/>
<line y1="251.5" x2="1280" y2="251.5" stroke="#BBBBBB"/>
<line x1="-3" y1="728.5" x2="151" y2="728.5" stroke="#BBBBBB"/>
<line x1="353" y1="728.5" x2="446" y2="728.5" stroke="#BBBBBB"/>
<line y1="59.5" x2="1280" y2="59.5" stroke="#BBBBBB"/>
<line y1="275.5" x2="1280" y2="275.5" stroke="#BBBBBB"/>
<line x1="-3" y1="752.5" x2="59" y2="752.5" stroke="#BBBBBB"/>
<line y1="83.5" x2="1280" y2="83.5" stroke="#BBBBBB"/>
<line y1="299.5" x2="1280" y2="299.5" stroke="#BBBBBB"/>
<line y1="107.5" x2="1280" y2="107.5" stroke="#BBBBBB"/>
<line y1="323.5" x2="1280" y2="323.5" stroke="#BBBBBB"/>
<line x1="-2" y1="455.5" x2="1278" y2="455.5" stroke="#BBBBBB"/>
<line x1="-2" y1="467.5" x2="1278" y2="467.5" stroke="#BBBBBB"/>
<line x1="-2" y1="479.5" x2="1278" y2="479.5" stroke="#BBBBBB"/>
<line x1="-2" y1="491.5" x2="1278" y2="491.5" stroke="#BBBBBB"/>
<line x1="-3" y1="503.5" x2="1277" y2="503.5" stroke="#BBBBBB"/>
<line x1="-5" y1="515.5" x2="1275" y2="515.5" stroke="#BBBBBB"/>
<line x1="-5" y1="527.5" x2="1275" y2="527.5" stroke="#BBBBBB"/>
<line x1="-3" y1="538.5" x2="1277" y2="538.5" stroke="#BBBBBB"/>
<line x1="-3" y1="550.5" x2="1277" y2="550.5" stroke="#BBBBBB"/>
<line x1="-3" y1="562.5" x2="1277" y2="562.5" stroke="#BBBBBB"/>
<line x1="-3" y1="574.5" x2="1277" y2="574.5" stroke="#BBBBBB"/>
<line x1="-3" y1="586.5" x2="1277" y2="586.5" stroke="#BBBBBB"/>
<line y1="131.5" x2="1280" y2="131.5" stroke="#BBBBBB"/>
<line y1="347.5" x2="1280" y2="347.5" stroke="#BBBBBB"/>
<line x1="-3" y1="608.5" x2="1277" y2="608.5" stroke="#BBBBBB"/>
<line y1="155.5" x2="1280" y2="155.5" stroke="#BBBBBB"/>
<line y1="371.5" x2="1280" y2="371.5" stroke="#BBBBBB"/>
<line x1="-3" y1="632.5" x2="939" y2="632.5" stroke="#BBBBBB"/>
<line y1="179.5" x2="1280" y2="179.5" stroke="#BBBBBB"/>
<line y1="395.5" x2="1280" y2="395.5" stroke="#BBBBBB"/>
<line x1="-3" y1="656.5" x2="841" y2="656.5" stroke="#BBBBBB"/>
<line y1="203.5" x2="1280" y2="203.5" stroke="#BBBBBB"/>
<line y1="419.5" x2="1280" y2="419.5" stroke="#BBBBBB"/>
<line x1="-3" y1="680.5" x2="348" y2="680.5" stroke="#BBBBBB"/>
<line y1="23.5" x2="1280" y2="23.5" stroke="#BBBBBB"/>
<line y1="239.5" x2="1280" y2="239.5" stroke="#BBBBBB"/>
<line x1="-3" y1="716.5" x2="203" y2="716.5" stroke="#BBBBBB"/>
<line x1="355" y1="717.5" x2="488" y2="717.5" stroke="#BBBBBB"/>
<line y1="47.5" x2="1280" y2="47.5" stroke="#BBBBBB"/>
<line y1="263.5" x2="1280" y2="263.5" stroke="#BBBBBB"/>
<line x1="-3" y1="740.5" x2="104" y2="740.5" stroke="#BBBBBB"/>
<line y1="71.5" x2="1280" y2="71.5" stroke="#BBBBBB"/>
<line y1="287.5" x2="1280" y2="287.5" stroke="#BBBBBB"/>
<line x1="-3" y1="764.5" x2="17" y2="764.5" stroke="#BBBBBB"/>
<line y1="95.5" x2="1280" y2="95.5" stroke="#BBBBBB"/>
<line y1="311.5" x2="1280" y2="311.5" stroke="#BBBBBB"/>
<line y1="119.5" x2="1280" y2="119.5" stroke="#BBBBBB"/>
<line y1="335.5" x2="1280" y2="335.5" stroke="#BBBBBB"/>
<line x1="-3" y1="596.5" x2="1277" y2="596.5" stroke="#BBBBBB"/>
<line y1="143.5" x2="1280" y2="143.5" stroke="#BBBBBB"/>
<line y1="359.5" x2="1280" y2="359.5" stroke="#BBBBBB"/>
<line x1="-3" y1="620.5" x2="988" y2="620.5" stroke="#BBBBBB"/>
<line y1="167.5" x2="1280" y2="167.5" stroke="#BBBBBB"/>
<line y1="383.5" x2="1280" y2="383.5" stroke="#BBBBBB"/>
<line x1="-3" y1="644.5" x2="891" y2="644.5" stroke="#BBBBBB"/>
<line y1="191.5" x2="1280" y2="191.5" stroke="#BBBBBB"/>
<line y1="407.5" x2="1280" y2="407.5" stroke="#BBBBBB"/>
<line x1="-3.00056" y1="668" x2="795" y2="667.5" stroke="#BBBBBB"/>
<line y1="215.5" x2="1280" y2="215.5" stroke="#BBBBBB"/>
<line y1="431.5" x2="1280" y2="431.5" stroke="#BBBBBB"/>
<line x1="-3" y1="692.5" x2="304" y2="692.5" stroke="#BBBBBB"/>
<g filter="url(#filter0_i_20_1425)">
<circle cx="37" cy="36" r="6" fill="#D9D9D9"/>
</g>
<g filter="url(#filter1_i_20_1425)">
<circle cx="37" cy="192" r="6" fill="#D9D9D9"/>
</g>
<g filter="url(#filter2_i_20_1425)">
<circle cx="37" cy="588" r="6" fill="#D9D9D9"/>
</g>
<g filter="url(#filter3_i_20_1425)">
<circle cx="37" cy="366" r="6" fill="#D9D9D9"/>
</g>
<path d="M490.9 254.698C482.562 243.221 469.055 237.958 452.005 240.749C446.252 241.648 440.904 243.253 435.466 245.045C430.565 246.666 425.921 248.704 421.567 251.062C409.148 257.87 398.961 267.434 392.868 278.128C388.525 285.805 386.336 294.213 386.749 302.571C387.742 316.784 394.697 331.378 408.772 341.067C417.911 347.408 429.593 351.459 441.769 352.926C458.31 354.763 475.987 351.845 489.519 344.155C500.5 337.949 508.358 329.093 512.641 319.176L513.253 319.291C511.832 325.589 508.608 331.781 503.911 337.194C501.298 340.245 498.143 343.035 494.675 345.547C487.97 350.338 479.799 353.939 471.034 356.051C459.463 358.834 446.786 359.426 434.984 357.149C416.097 353.634 399.375 343.536 391.275 330.042C387.599 324.034 385.781 317.621 384.794 311.198C383.596 303.366 384.36 295.394 386.73 287.731C391.021 274.253 400.32 260.034 413.858 250.525C418.816 247.066 424.5 244.141 430.626 242C436.685 239.93 443.038 238.09 449.644 237.123C463.729 234.965 477.583 237.805 486.238 246.872C488.488 249.205 490.218 251.784 491.476 254.502L490.9 254.699V254.698Z" fill="black"/>
<g clip-path="url(#clip1_20_1425)">
<path d="M518 309.576C519.416 305.172 521.326 300.926 523.58 296.857C527.35 290.129 532.55 283.798 539.816 280.283C552.186 274.352 566.642 278.31 577.101 286.044C586.635 293.148 594.256 303.045 596.984 314.401C599.156 323.382 597.232 333.025 592.195 340.849C582.802 355.513 564.321 362.608 546.834 359.137C539.989 357.787 533.391 354.987 527.978 350.727C514.501 340.145 513.118 324.659 518 309.576ZM518.5 309.714C514.584 322.192 516.654 334.658 526.843 343.778C538.093 353.836 555.301 357.372 569.855 352.553C578.699 349.603 586.244 343.45 591.015 335.769C594.935 329.421 596.697 322.041 595.264 314.732C592.49 299.994 579.304 288.615 564.925 284.025C557.957 281.769 550.261 281.024 543.178 283.18C530.829 286.995 522.246 298.192 518.502 309.714H518.5Z" fill="black"/>
</g>
<g clip-path="url(#clip2_20_1425)">
<path d="M731 308.576C732.416 304.172 734.326 299.926 736.58 295.857C740.35 289.129 745.55 282.798 752.816 279.283C765.186 273.352 779.642 277.31 790.101 285.044C799.634 292.148 807.256 302.045 809.984 313.401C812.156 322.382 810.232 332.025 805.195 339.849C795.802 354.513 777.321 361.608 759.834 358.137C752.989 356.787 746.391 353.987 740.978 349.727C727.501 339.145 726.118 323.659 731 308.576ZM731.5 308.714C727.584 321.192 729.654 333.658 739.843 342.778C751.093 352.836 768.301 356.372 782.855 351.553C791.699 348.603 799.244 342.45 804.015 334.769C807.935 328.421 809.697 321.041 808.264 313.732C805.49 298.994 792.304 287.615 777.925 283.025C770.957 280.769 763.261 280.024 756.178 282.18C743.829 285.995 735.246 297.192 731.502 308.714H731.5Z" fill="black"/>
</g>
<path d="M648.943 310.469C645.661 311.79 639.753 312.248 636.335 311.425C634.289 310.921 632.245 309.877 630.163 309.638C629.123 309.505 628.08 309.508 627.036 309.607C624.94 309.794 622.86 310.55 620.799 310.971C619.898 311.175 618.62 311.326 617.7 311.452C615.642 311.737 613.59 312.069 611.515 312.102C608.363 312.145 605.218 311.885 602.1 311.297C601.035 311.082 599.965 310.845 598.872 310.465L598.812 309.887C599.801 309.248 600.812 308.761 601.829 308.319C605.834 306.66 610.09 305.681 614.372 305.774C616.499 305.873 618.622 305.948 620.737 306.286C621.804 306.465 622.856 306.74 623.907 307.01C625.991 307.553 628.078 307.91 630.209 307.764C632.312 307.66 634.45 306.814 636.584 306.571C638.715 306.329 640.82 306.732 642.898 307.227C645.036 307.795 647.092 308.554 649.001 309.887L648.942 310.465L648.943 310.469Z" fill="black"/>
<path d="M627.291 270.557C625.982 280.397 624.363 290.077 623.273 299.925C622.365 307.931 619.908 315.905 620.94 324.035C621.052 324.834 621.193 325.826 621.355 326.619C621.547 327.463 621.703 328.33 621.96 329.151C623.037 333.182 625.042 336.82 627.156 340.252C627.671 341.084 628.231 341.918 628.796 342.704C630.637 345.263 632.772 347.503 635.279 349.086C639.06 351.389 643.542 352.52 647.813 352.706C656.52 353.052 663.707 347.884 666.541 338.688C666.956 337.378 667.299 336.007 667.509 334.633L668.037 334.608C668.294 336.079 668.336 337.563 668.253 339.06C667.996 343.687 666.314 348.258 663.419 351.686C658.468 357.679 650.559 359.954 643.456 358.522C639.244 357.717 635.147 355.942 631.703 353.112C628.261 350.336 625.686 346.481 624 342.192C622.939 339.584 621.969 336.657 621.226 333.91C620.112 329.702 619.417 325.38 619.021 321.024C618.356 313.819 617.916 306.515 618.576 299.298C618.856 296.406 619.326 293.538 619.891 290.698C621.362 283.625 623.506 276.682 626.795 270.369L627.295 270.559L627.291 270.557Z" fill="black"/>
<path d="M706.943 310.469C703.661 311.79 697.753 312.248 694.335 311.425C692.289 310.921 690.245 309.877 688.163 309.638C687.123 309.504 686.08 309.508 685.036 309.607C682.94 309.794 680.86 310.55 678.799 310.971C677.898 311.175 676.62 311.326 675.7 311.452C673.642 311.737 671.59 312.069 669.515 312.102C666.363 312.145 663.218 311.885 660.1 311.297C659.035 311.082 657.965 310.845 656.872 310.465L656.812 309.887C657.801 309.248 658.812 308.761 659.829 308.319C663.834 306.66 668.09 305.681 672.372 305.774C674.499 305.873 676.622 305.948 678.737 306.286C679.804 306.465 680.856 306.74 681.907 307.01C683.991 307.553 686.078 307.91 688.209 307.764C690.312 307.66 692.45 306.814 694.584 306.571C696.715 306.329 698.82 306.732 700.898 307.227C703.036 307.795 705.092 308.554 707.001 309.887L706.942 310.465L706.943 310.469Z" fill="black"/>
<path d="M685.291 270.557C683.982 280.397 682.363 290.077 681.273 299.925C680.365 307.931 677.908 315.905 678.94 324.035C679.052 324.834 679.193 325.826 679.355 326.619C679.547 327.463 679.703 328.33 679.96 329.151C681.037 333.182 683.042 336.82 685.156 340.252C685.671 341.084 686.231 341.918 686.796 342.704C688.637 345.263 690.772 347.503 693.279 349.086C697.06 351.389 701.542 352.52 705.813 352.706C714.52 353.052 721.707 347.884 724.541 338.688C724.956 337.378 725.299 336.007 725.509 334.633L726.037 334.608C726.294 336.079 726.336 337.563 726.253 339.06C725.996 343.687 724.314 348.258 721.419 351.686C716.468 357.679 708.559 359.954 701.456 358.522C697.244 357.717 693.147 355.942 689.703 353.112C686.261 350.336 683.686 346.481 682 342.192C680.939 339.584 679.969 336.657 679.226 333.91C678.112 329.702 677.417 325.38 677.021 321.024C676.356 313.819 675.916 306.515 676.576 299.298C676.856 296.406 677.326 293.538 677.891 290.698C679.362 283.625 681.506 276.682 684.795 270.369L685.295 270.559L685.291 270.557Z" fill="black"/>
<path d="M812.191 281.487C814.539 288.679 816.107 296.102 817.099 303.579C818.438 314.04 818.536 324.598 818.707 335.11C818.78 341.091 818.742 347.136 818.452 353.117L818.389 354.262L818.344 354.861L818.31 355.217L818.292 355.356C818.273 355.437 818.301 355.422 818.194 355.795C814.489 359.159 813.197 354.071 813.994 355.711C813.872 355.241 813.827 354.706 813.77 354.237C813.284 349.319 813.225 344.384 813.284 339.46C813.6 327.394 814.374 315.304 817.577 303.576C818.414 300.636 819.431 297.74 820.757 294.957C822.732 290.743 825.615 286.69 829.454 283.749C833.423 280.634 838.551 278.354 843.831 279.061C851.931 280.137 857.094 287.351 859.859 294.142C862.367 300.165 861.713 304.563 861.24 310.724C860.913 314.978 860.788 319.709 860.738 323.996C860.673 328.738 860.557 333.564 861.014 338.225C861.225 340.272 861.586 342.372 862.199 344.343C864.206 350.922 869.63 357.358 876.929 358.628C887.417 360.551 893.62 353.036 894.947 343.782C895.117 342.685 895.205 341.581 895.237 340.47L895.775 340.44C895.983 341.945 896.037 343.473 895.954 345.002C895.581 353.325 890.629 361.08 881.498 362.303C878.065 362.776 874.52 362.358 871.302 361.139C865.49 358.843 861.017 354.116 858.363 348.739C856.656 345.26 855.783 341.338 855.394 337.661C854.882 333.1 854.909 328.485 854.952 323.916C854.988 320.936 855.065 317.802 855.255 314.833C855.344 313.357 855.48 311.759 855.624 310.284C855.979 306.278 856.839 301.703 855.64 297.812C854.172 292.741 851.243 287.172 846.509 284.396C843.044 282.385 838.872 282.666 835.233 284.243C826.756 287.802 821.917 295.829 819.316 304.057C814.315 320.122 815.408 337.303 817.999 353.683L818.095 354.202L818.145 354.445C818.162 354.517 818.181 354.598 818.189 354.615C818.986 356.18 817.73 351.276 814.039 354.541C813.944 354.871 813.978 354.808 813.965 354.842C813.962 354.859 813.964 354.845 813.964 354.842L813.967 354.637L813.969 354.116C813.935 347.845 813.845 341.374 813.922 335.115C813.926 326.594 814.259 312.186 813.822 303.841C813.489 296.4 812.707 289.014 811.666 281.592L812.191 281.481V281.487Z" fill="black"/>
<line x1="71.5" y1="-89.0012" x2="73.5464" y2="748.999" stroke="#FF0000"/>
<g filter="url(#filter4_d_20_1425)">
<path d="M-32.8719 777.567C-17.2768 775.525 -1.40022 769.853 11.4968 766.081C48.5477 755.245 86.2542 745.2 125.088 735.252C196.645 716.922 276.435 701.364 344.667 681.409C362.419 676.217 381.421 670.055 381.056 679.241C380.788 685.98 369.701 693.257 364.268 700.113C356.293 710.178 352.015 719.235 352.958 728.905C353.696 736.475 344.322 747.27 373.153 745.654C389.523 744.737 406.406 739.249 420.019 735.65C454.691 726.485 488.755 716.939 523.995 708.088C550.221 701.501 582.379 695.446 611.928 692.958C621.966 692.113 618.505 701.423 618.742 703.852C619.052 707.031 614.216 715.828 629.223 712.146C653.942 706.083 676.781 698.378 701.245 692.013C764.78 675.481 828.607 659.367 893.932 643.896C937.604 633.554 998.688 615.05 1049.07 610.138C1064.87 608.597 1035.22 628.08 1034.9 628.426C1021.34 643.31 996.225 657.368 984.836 672.642C976.802 683.417 977.004 681.141 999.488 675.44C1082.94 654.28 1183.87 643.401 1275.48 634.468" stroke="#B3B3B3" stroke-linecap="round"/>
</g>
</g>
<defs>
<filter id="filter0_i_20_1425" x="31" y="30" width="12" height="16" filterUnits="userSpaceOnUse" color-interpolation-filters="sRGB">
<feFlood flood-opacity="0" result="BackgroundImageFix"/>
<feBlend mode="normal" in="SourceGraphic" in2="BackgroundImageFix" result="shape"/>
<feColorMatrix in="SourceAlpha" type="matrix" values="0 0 0 0 0 0 0 0 0 0 0 0 0 0 0 0 0 0 127 0" result="hardAlpha"/>
<feOffset dy="4"/>
<feGaussianBlur stdDeviation="2"/>
<feComposite in2="hardAlpha" operator="arithmetic" k2="-1" k3="1"/>
<feColorMatrix type="matrix" values="0 0 0 0 0 0 0 0 0 0 0 0 0 0 0 0 0 0 0.25 0"/>
<feBlend mode="normal" in2="shape" result="effect1_innerShadow_20_1425"/>
</filter>
<filter id="filter1_i_20_1425" x="31" y="186" width="12" height="16" filterUnits="userSpaceOnUse" color-interpolation-filters="sRGB">
<feFlood flood-opacity="0" result="BackgroundImageFix"/>
<feBlend mode="normal" in="SourceGraphic" in2="BackgroundImageFix" result="shape"/>
<feColorMatrix in="SourceAlpha" type="matrix" values="0 0 0 0 0 0 0 0 0 0 0 0 0 0 0 0 0 0 127 0" result="hardAlpha"/>
<feOffset dy="4"/>
<feGaussianBlur stdDeviation="2"/>
<feComposite in2="hardAlpha" operator="arithmetic" k2="-1" k3="1"/>
<feColorMatrix type="matrix" values="0 0 0 0 0 0 0 0 0 0 0 0 0 0 0 0 0 0 0.25 0"/>
<feBlend mode="normal" in2="shape" result="effect1_innerShadow_20_1425"/>
</filter>
<filter id="filter2_i_20_1425" x="31" y="582" width="12" height="16" filterUnits="userSpaceOnUse" color-interpolation-filters="sRGB">
<feFlood flood-opacity="0" result="BackgroundImageFix"/>
<feBlend mode="normal" in="SourceGraphic" in2="BackgroundImageFix" result="shape"/>
<feColorMatrix in="SourceAlpha" type="matrix" values="0 0 0 0 0 0 0 0 0 0 0 0 0 0 0 0 0 0 127 0" result="hardAlpha"/>
<feOffset dy="4"/>
<feGaussianBlur stdDeviation="2"/>
<feComposite in2="hardAlpha" operator="arithmetic" k2="-1" k3="1"/>
<feColorMatrix type="matrix" values="0 0 0 0 0 0 0 0 0 0 0 0 0 0 0 0 0 0 0.25 0"/>
<feBlend mode="normal" in2="shape" result="effect1_innerShadow_20_1425"/>
</filter>
<filter id="filter3_i_20_1425" x="31" y="360" width="12" height="16" filterUnits="userSpaceOnUse" color-interpolation-filters="sRGB">
<feFlood flood-opacity="0" result="BackgroundImageFix"/>
<feBlend mode="normal" in="SourceGraphic" in2="BackgroundImageFix" result="shape"/>
<feColorMatrix in="SourceAlpha" type="matrix" values="0 0 0 0 0 0 0 0 0 0 0 0 0 0 0 0 0 0 127 0" result="hardAlpha"/>
<feOffset dy="4"/>
<feGaussianBlur stdDeviation="2"/>
<feComposite in2="hardAlpha" operator="arithmetic" k2="-1" k3="1"/>
<feColorMatrix type="matrix" values="0 0 0 0 0 0 0 0 0 0 0 0 0 0 0 0 0 0 0.25 0"/>
<feBlend mode="normal" in2="shape" result="effect1_innerShadow_20_1425"/>
</filter>
<filter id="filter4_d_20_1425" x="-37.3719" y="609.551" width="1317.36" height="176.516" filterUnits="userSpaceOnUse" color-interpolation-filters="sRGB">
<feFlood flood-opacity="0" result="BackgroundImageFix"/>
<feColorMatrix in="SourceAlpha" type="matrix" values="0 0 0 0 0 0 0 0 0 0 0 0 0 0 0 0 0 0 127 0" result="hardAlpha"/>
<feOffset dy="4"/>
<feGaussianBlur stdDeviation="2"/>
<feComposite in2="hardAlpha" operator="out"/>
<feColorMatrix type="matrix" values="0 0 0 0 0 0 0 0 0 0 0 0 0 0 0 0 0 0 0.25 0"/>
<feBlend mode="normal" in2="BackgroundImageFix" result="effect1_dropShadow_20_1425"/>
<feBlend mode="normal" in="SourceGraphic" in2="effect1_dropShadow_20_1425" result="shape"/>
</filter>
<clipPath id="clip0_20_1425">
<rect width="1280" height="804" fill="white"/>
</clipPath>
<clipPath id="clip1_20_1425">
<rect width="91" height="83" fill="white" transform="translate(513 277)"/>
</clipPath>
<clipPath id="clip2_20_1425">
<rect width="91" height="83" fill="white" transform="translate(726 276)"/>
</clipPath>
</defs>
</svg>
