<svg width="556" height="270" viewBox="0 0 556 270" fill="none" xmlns="http://www.w3.org/2000/svg">
<rect width="556" height="270" fill="#FBFBFB"/>
<line x1="34" y1="105.5" x2="523" y2="105.5" stroke="#BBBBBB" stroke-dasharray="2 2"/>
<line x1="34" y1="122.5" x2="523" y2="122.5" stroke="black"/>
<line x1="33" y1="139.5" x2="523" y2="139.5" stroke="#BBBBBB" stroke-dasharray="2 2"/>
<line x1="33" y1="165.5" x2="523" y2="165.5" stroke="#BBBBBB" stroke-dasharray="2 2"/>
<line x1="33" y1="192.5" x2="523" y2="192.5" stroke="#BBBBBB" stroke-dasharray="2 2"/>
<line x1="34" y1="86.5" x2="523" y2="86.5" stroke="#BBBBBB" stroke-dasharray="2 2"/>
<line x1="34" y1="98.5" x2="523" y2="98.5" stroke="black"/>
<line x1="34" y1="114.5" x2="523" y2="114.5" stroke="#BBBBBB" stroke-dasharray="2 2"/>
<line x1="33" y1="131.5" x2="523" y2="131.5" stroke="#BBBBBB" stroke-dasharray="2 2"/>
<line x1="33" y1="156.5" x2="523" y2="156.5" stroke="#BBBBBB" stroke-dasharray="2 2"/>
<line x1="33" y1="184.5" x2="523" y2="184.5" stroke="#BBBBBB" stroke-dasharray="2 2"/>
<line x1="34" y1="78.5" x2="523" y2="78.5" stroke="#BBBBBB" stroke-dasharray="2 2"/>
<line y1="-0.5" x2="490.004" y2="-0.5" transform="matrix(0.999992 -0.00394536 0.0044187 0.99999 33 151.243)" stroke="black"/>
<line x1="33" y1="174.5" x2="523" y2="174.5" stroke="black"/>
<line x1="34" y1="67.5" x2="523" y2="67.5" stroke="black"/>
<line x1="33" y1="201.5" x2="523" y2="201.5" stroke="black"/>
<path d="M72 120.692C73.2162 118.336 74.3318 115.958 75.2537 113.528C75.9647 111.665 76.5604 109.722 77.0946 107.823C77.6369 105.904 78.1054 103.963 78.435 102.012C78.5545 101.357 78.6679 100.553 78.8555 99.9074C78.9514 99.6199 79.0481 99.2606 79.3839 99.0721C79.6125 98.9513 79.9073 98.9926 80.1076 99.1195C80.6237 99.4447 80.9908 100.173 81.2507 100.642C81.6658 101.432 82.0298 102.237 82.3892 103.041C84.2704 107.309 85.9465 111.638 87.9023 115.884C88.8365 117.971 89.8601 120.18 90.8605 122.244C91.7629 124.105 93.0573 126.696 94 128.569L93.8944 128.606C88.9472 121.635 85.4765 114.113 82.8812 106.457C82.5168 105.398 82.1428 104.236 81.7807 103.181C81.3977 102.105 81.0368 101.002 80.4411 99.9866C80.2868 99.7413 79.7943 98.9602 79.4496 99.4099C79.3216 99.5793 79.2551 99.7713 79.1955 99.966C79.0767 100.374 79.0137 100.789 78.9529 101.207C78.8013 102.313 78.7034 103.473 78.575 104.581C78.3835 106.273 78.1062 107.969 77.6346 109.633C77.0424 111.714 76.225 113.759 75.2161 115.745C74.8835 116.393 74.5121 117.073 74.1345 117.705C73.5214 118.738 72.8506 119.75 72.1044 120.73L72 120.691V120.692Z" fill="black"/>
<path d="M76.9547 114.847C77.3906 114.493 78.2811 114.223 78.912 114.267C79.1766 114.286 79.4439 114.362 79.7066 114.401C79.9627 114.441 80.2203 114.437 80.4772 114.405C80.8214 114.363 81.1649 114.248 81.5092 114.198C81.857 114.149 82.2075 114.142 82.5591 114.134C83.0902 114.131 83.6032 114.235 84.0929 114.396C84.4302 114.511 84.7463 114.649 85.024 114.847L84.9985 114.933C84.7362 115 84.4673 115.034 84.1969 115.063C83.7807 115.104 83.3521 115.12 82.9444 115.103C82.5336 115.086 82.134 115.004 81.7286 114.952C81.2303 114.883 80.7545 114.675 80.2373 114.693C79.9778 114.694 79.736 114.751 79.4981 114.839C79.3375 114.895 79.1801 114.959 79.0207 115C78.8617 115.043 78.7 115.063 78.5356 115.071C78.1983 115.091 77.8649 115.085 77.5245 115.042C77.3488 115.018 77.1709 114.99 76.981 114.932L76.9554 114.846L76.9547 114.847Z" fill="black"/>
<path d="M94.3183 120.692C95.4616 118.336 96.5104 115.958 97.377 113.528C98.0454 111.665 98.6054 109.722 99.1076 107.823C99.6175 105.904 100.058 103.963 100.368 102.012C100.48 101.357 100.587 100.553 100.763 99.9074C100.853 99.6199 100.944 99.2606 101.26 99.0721C101.475 98.9513 101.752 98.9926 101.94 99.1195C102.425 99.4447 102.77 100.173 103.015 100.642C103.405 101.432 103.747 102.237 104.085 103.041C105.853 107.309 107.429 111.638 109.268 115.884C110.146 117.971 111.108 120.18 112.049 122.244C112.897 124.105 114.114 126.696 115 128.569L114.901 128.606C110.25 121.635 106.987 114.113 104.548 106.457C104.205 105.398 103.853 104.236 103.513 103.181C103.153 102.105 102.814 101.002 102.254 99.9866C102.108 99.7413 101.646 98.9602 101.322 99.4099C101.201 99.5793 101.139 99.7713 101.083 99.966C100.971 100.374 100.912 100.789 100.855 101.207C100.712 102.313 100.62 103.473 100.499 104.581C100.319 106.273 100.059 107.969 99.6153 109.633C99.0585 111.714 98.2901 113.759 97.3417 115.745C97.029 116.393 96.6799 117.073 96.3249 117.705C95.7485 118.738 95.118 119.75 94.4165 120.73L94.3183 120.691V120.692Z" fill="black"/>
<path d="M98.9759 114.847C99.3857 114.493 100.223 114.223 100.816 114.267C101.065 114.286 101.316 114.362 101.563 114.401C101.804 114.441 102.046 114.437 102.287 114.405C102.611 114.363 102.934 114.248 103.258 114.198C103.584 114.149 103.914 114.142 104.245 114.134C104.744 114.131 105.226 114.235 105.686 114.396C106.003 114.511 106.301 114.649 106.562 114.847L106.538 114.933C106.291 115 106.038 115.034 105.784 115.063C105.393 115.104 104.99 115.12 104.607 115.103C104.221 115.086 103.845 115.004 103.464 114.952C102.995 114.883 102.548 114.675 102.062 114.693C101.818 114.694 101.591 114.751 101.367 114.839C101.216 114.895 101.068 114.959 100.918 115C100.769 115.043 100.617 115.063 100.462 115.071C100.145 115.091 99.8316 115.085 99.5116 115.042C99.3465 115.018 99.1792 114.99 99.0006 114.932L98.9766 114.846L98.9759 114.847Z" fill="black"/>
<g clip-path="url(#clip0_24_1700)">
<path d="M136.205 109.213C136.281 108.374 136.212 107.282 135.621 106.792C135.225 106.482 134.738 106.589 134.286 106.656C134.19 106.673 134.088 106.695 133.993 106.72C133.662 106.813 133.341 106.968 133.04 107.174C132.641 107.451 132.237 107.794 131.883 108.173C131.524 108.559 131.205 108.997 130.912 109.471C130.237 110.53 129.775 111.79 129.408 113.079C128.887 114.941 128.478 116.994 128.828 118.971C129.171 120.87 130.312 122.172 131.761 122.504C132.954 122.793 134.451 122.435 135.061 120.91C135.221 120.509 135.329 120.082 135.425 119.641C135.555 119.043 135.662 118.429 135.758 117.818C136.04 115.98 136.229 114.103 136.254 112.229C136.254 111.953 136.257 111.625 136.222 111.377C136.289 111.632 136.552 111.756 136.739 111.629C136.825 111.572 136.865 111.508 136.898 111.432C136.861 111.601 136.844 111.777 136.822 111.968C136.728 112.893 136.682 113.836 136.637 114.773C136.583 116.025 136.539 117.284 136.568 118.536C136.584 119.135 136.619 119.708 136.78 120.259C136.971 120.921 137.316 121.506 137.768 121.896C138.03 122.133 138.324 122.306 138.637 122.328C139.346 122.375 139.94 121.712 140.417 121.076C140.9 120.44 141.261 119.671 141.486 118.813L141.56 118.839C141.457 119.551 141.24 120.246 140.934 120.862C140.1 122.472 138.935 123.712 137.456 122.556C136.634 121.947 136.07 120.808 135.906 119.593C135.777 118.607 135.776 117.628 135.772 116.645C135.78 115.026 135.834 113.417 136.005 111.81C136.025 111.644 136.046 111.479 136.079 111.296C136.125 111.05 136.187 110.791 136.384 110.664C136.655 110.495 136.94 110.724 137.005 111.084C137.049 111.317 137.05 111.526 137.055 111.749C137.059 112.247 137.034 112.74 137.004 113.23C136.869 115.165 136.622 117.08 136.207 118.947C136.029 119.722 135.83 120.532 135.498 121.245C135.288 121.688 134.996 122.071 134.657 122.342C133.785 123.044 132.69 123.109 131.711 122.84C130.179 122.42 128.985 121.063 128.523 119.082C127.967 116.661 128.388 113.928 129.108 111.641C129.717 109.743 130.764 108.006 132.127 106.96C132.557 106.626 133.032 106.321 133.528 106.167C133.747 106.097 133.974 106.052 134.199 106.033C134.712 105.999 135.277 105.958 135.733 106.334C136.231 106.746 136.421 107.538 136.399 108.269C136.391 108.598 136.353 108.921 136.282 109.235L136.206 109.212L136.205 109.213Z" fill="black"/>
</g>
<g clip-path="url(#clip1_24_1700)">
<path d="M154.205 109.213C154.281 108.374 154.212 107.282 153.621 106.792C153.225 106.482 152.738 106.589 152.286 106.656C152.19 106.673 152.088 106.695 151.993 106.72C151.662 106.813 151.341 106.968 151.04 107.174C150.641 107.451 150.237 107.794 149.883 108.173C149.524 108.559 149.205 108.997 148.912 109.471C148.237 110.53 147.775 111.79 147.408 113.079C146.887 114.941 146.478 116.994 146.828 118.971C147.171 120.87 148.312 122.172 149.761 122.504C150.954 122.793 152.451 122.435 153.061 120.91C153.221 120.509 153.329 120.082 153.425 119.641C153.555 119.043 153.662 118.429 153.758 117.818C154.04 115.98 154.229 114.103 154.254 112.229C154.254 111.953 154.257 111.625 154.222 111.377C154.289 111.632 154.552 111.756 154.739 111.629C154.825 111.572 154.865 111.508 154.898 111.432C154.861 111.601 154.844 111.777 154.822 111.968C154.728 112.893 154.682 113.836 154.637 114.773C154.583 116.025 154.539 117.284 154.568 118.536C154.584 119.135 154.619 119.708 154.78 120.259C154.971 120.921 155.316 121.506 155.768 121.896C156.03 122.133 156.324 122.306 156.637 122.328C157.346 122.375 157.94 121.712 158.417 121.076C158.9 120.44 159.261 119.671 159.486 118.813L159.56 118.839C159.457 119.551 159.24 120.246 158.934 120.862C158.1 122.472 156.935 123.712 155.456 122.556C154.634 121.947 154.07 120.808 153.906 119.593C153.777 118.607 153.776 117.628 153.772 116.645C153.78 115.026 153.834 113.417 154.005 111.81C154.025 111.644 154.046 111.479 154.079 111.296C154.125 111.05 154.187 110.791 154.384 110.664C154.655 110.495 154.94 110.724 155.005 111.084C155.049 111.317 155.05 111.526 155.055 111.749C155.059 112.247 155.034 112.74 155.004 113.23C154.869 115.165 154.622 117.08 154.207 118.947C154.029 119.722 153.83 120.532 153.498 121.245C153.288 121.688 152.996 122.071 152.657 122.342C151.785 123.044 150.69 123.109 149.711 122.84C148.179 122.42 146.985 121.063 146.523 119.082C145.967 116.661 146.388 113.928 147.108 111.641C147.717 109.743 148.764 108.006 150.127 106.96C150.557 106.626 151.032 106.321 151.528 106.167C151.747 106.097 151.974 106.052 152.199 106.033C152.712 105.999 153.277 105.958 153.733 106.334C154.231 106.746 154.421 107.538 154.399 108.269C154.391 108.598 154.353 108.921 154.282 109.235L154.206 109.212L154.205 109.213Z" fill="black"/>
</g>
<path d="M224.246 105.782C226.04 107.892 227.358 110.351 228.263 112.916C228.566 113.773 228.81 114.653 228.991 115.54C229.269 116.868 229.393 118.21 229.565 119.547C229.618 119.884 229.816 121.723 230.24 121.599C230.36 121.539 230.435 121.416 230.508 121.294C230.668 121.006 230.782 120.696 230.892 120.385C231.228 119.41 231.564 118.155 231.865 117.164C231.986 116.756 232.138 116.274 232.274 115.871C232.985 113.788 233.84 111.751 234.77 109.746C235.026 109.211 235.333 108.592 235.611 108.068C236.519 106.351 237.604 104.707 238.859 103.198C240.035 101.781 241.353 100.467 242.811 99.311L242.883 99.3789C240.861 101.68 239.026 104.122 237.536 106.761C237.047 107.621 236.579 108.541 236.125 109.423C234.946 111.717 233.881 114.068 232.851 116.427C232.367 117.541 231.892 118.727 231.459 119.861C231.296 120.285 231.137 120.708 230.944 121.124C230.834 121.343 230.735 121.555 230.549 121.74C230.361 121.928 230.069 121.959 229.866 121.759C229.642 121.526 229.563 121.221 229.473 120.932C229.349 120.494 229.256 120.054 229.156 119.613C228.961 118.739 228.753 117.87 228.522 117.006C228.001 115.09 227.457 113.158 226.733 111.3C226.332 110.267 225.884 109.237 225.4 108.236C225.009 107.427 224.591 106.63 224.161 105.835L224.246 105.783L224.246 105.782Z" fill="black"/>
<path d="M246.184 105.994C247.888 108.17 249.14 110.706 250 113.351C250.288 114.235 250.519 115.142 250.692 116.057C250.956 117.426 251.073 118.81 251.237 120.189C251.287 120.537 251.475 122.433 251.878 122.305C251.992 122.244 252.063 122.117 252.133 121.99C252.285 121.694 252.393 121.374 252.497 121.053C252.817 120.048 253.135 118.754 253.421 117.731C253.537 117.311 253.681 116.814 253.81 116.398C254.486 114.25 255.298 112.149 256.181 110.082C256.425 109.53 256.716 108.892 256.981 108.352C257.843 106.58 258.874 104.885 260.066 103.329C261.184 101.868 262.436 100.513 263.821 99.3208L263.889 99.3908C261.968 101.764 260.225 104.282 258.81 107.003C258.344 107.891 257.9 108.839 257.468 109.749C256.349 112.115 255.337 114.539 254.358 116.971C253.899 118.121 253.447 119.344 253.036 120.513C252.881 120.95 252.73 121.386 252.546 121.815C252.443 122.041 252.348 122.26 252.172 122.451C251.993 122.645 251.715 122.677 251.523 122.47C251.31 122.23 251.235 121.916 251.149 121.618C251.032 121.166 250.943 120.712 250.848 120.257C250.663 119.356 250.465 118.46 250.246 117.569C249.751 115.593 249.235 113.601 248.547 111.685C248.166 110.619 247.74 109.557 247.28 108.525C246.908 107.69 246.511 106.869 246.103 106.049L246.184 105.995L246.184 105.994Z" fill="black"/>
<g clip-path="url(#clip2_24_1700)">
<path d="M279.349 107.156C278.515 109.508 278.135 112.088 278.416 114.625C278.465 115.046 278.534 115.483 278.608 115.898C278.947 117.699 279.52 119.814 280.676 121.09C282.714 123.317 285.819 122.017 286.98 119.251C287.419 118.232 287.537 117.06 287.465 115.925C287.356 114.201 286.843 112.562 286.287 110.979C285.955 110.067 285.557 109.212 285.13 108.355C285.03 108.155 284.894 107.882 284.801 107.668C284.719 107.482 284.638 107.254 284.683 107.033C284.745 106.688 285.06 106.496 285.327 106.631C285.398 106.666 285.45 106.709 285.505 106.764C285.744 107.028 285.938 107.352 286.147 107.629C286.87 108.633 287.671 109.506 288.781 109.774C289.675 109.997 290.603 109.843 291.475 109.546C291.977 109.372 292.471 109.149 292.952 108.9L293.243 108.747L293.284 108.836C292.932 109.124 292.565 109.389 292.182 109.625C290.82 110.478 289.152 110.944 287.674 110.233C286.826 109.833 286.126 109.096 285.514 108.317C285.313 108.068 285.14 107.805 284.938 107.581C284.938 107.582 284.94 107.583 284.941 107.584C284.941 107.584 284.949 107.591 284.955 107.596C284.971 107.606 284.977 107.612 285.001 107.623C285.276 107.755 285.596 107.472 285.558 107.109L285.556 107.089C285.554 107.081 285.552 107.071 285.552 107.07C285.552 107.068 285.551 107.067 285.551 107.065C285.552 107.065 285.557 107.082 285.565 107.1C285.885 107.778 286.256 108.436 286.554 109.139C286.963 110.058 287.278 111.035 287.552 112.025C287.98 113.581 288.301 115.239 288.152 116.888C288.098 117.487 287.975 118.086 287.784 118.644C287.189 120.363 285.922 121.687 284.465 122.256C282.562 122.991 280.661 122.293 279.42 120.409C278.383 118.849 277.916 116.87 277.713 114.921C277.674 114.534 277.652 114.129 277.649 113.739C277.628 111.914 277.975 110.085 278.633 108.443C278.82 107.977 279.032 107.528 279.275 107.106L279.349 107.155L279.349 107.156Z" fill="black"/>
</g>
<g clip-path="url(#clip3_24_1700)">
<path d="M298.073 107.156C297.337 109.508 297.002 112.088 297.25 114.625C297.293 115.046 297.354 115.483 297.419 115.898C297.718 117.699 298.223 119.814 299.243 121.09C301.042 123.317 303.782 122.017 304.806 119.251C305.194 118.232 305.298 117.06 305.234 115.925C305.138 114.201 304.685 112.562 304.195 110.979C303.902 110.067 303.551 109.212 303.174 108.355C303.086 108.155 302.966 107.882 302.883 107.668C302.811 107.482 302.74 107.254 302.779 107.033C302.834 106.688 303.112 106.496 303.347 106.631C303.41 106.666 303.456 106.709 303.505 106.764C303.716 107.028 303.886 107.352 304.071 107.629C304.709 108.633 305.415 109.506 306.395 109.774C307.184 109.997 308.003 109.843 308.772 109.546C309.215 109.372 309.651 109.149 310.075 108.9L310.332 108.747L310.369 108.836C310.058 109.124 309.734 109.389 309.396 109.625C308.194 110.478 306.723 110.944 305.418 110.233C304.67 109.833 304.052 109.096 303.512 108.317C303.335 108.068 303.183 107.805 303.004 107.581C303.005 107.582 303.006 107.583 303.007 107.584C303.007 107.584 303.014 107.591 303.019 107.596C303.033 107.606 303.039 107.612 303.06 107.623C303.302 107.755 303.585 107.472 303.552 107.109L303.549 107.089C303.548 107.081 303.546 107.071 303.546 107.07C303.546 107.068 303.545 107.067 303.545 107.065C303.546 107.065 303.55 107.082 303.557 107.1C303.84 107.778 304.167 108.436 304.43 109.139C304.791 110.058 305.069 111.035 305.31 112.025C305.688 113.581 305.971 115.239 305.84 116.888C305.793 117.487 305.684 118.086 305.515 118.644C304.99 120.363 303.872 121.687 302.587 122.256C300.908 122.991 299.23 122.293 298.135 120.409C297.221 118.849 296.809 116.87 296.629 114.921C296.595 114.534 296.575 114.129 296.573 113.739C296.554 111.914 296.861 110.085 297.441 108.443C297.606 107.977 297.793 107.528 298.008 107.106L298.073 107.155L298.073 107.156Z" fill="black"/>
</g>
<path d="M383.872 105.826C383.965 106.45 383.96 107.054 383.935 107.67C383.901 108.265 383.868 108.858 383.729 109.435C383.659 109.728 383.561 110.015 383.476 110.304C383.19 111.168 383.188 112.095 383.366 112.984C383.421 113.28 383.483 113.576 383.533 113.874C383.614 114.387 383.695 115.117 383.774 115.636C383.855 116.213 383.896 116.817 383.919 117.401C383.941 117.994 383.952 118.615 383.934 119.207C383.923 119.514 383.911 119.823 383.871 120.142L383.754 120.172C383.546 119.836 383.388 119.488 383.24 119.126C382.765 117.916 382.493 116.607 382.514 115.291C382.515 115.059 382.524 114.597 382.532 114.366C382.55 113.901 382.624 113.44 382.709 112.985C382.822 112.384 382.903 111.777 382.893 111.165C382.888 110.622 382.78 110.085 382.743 109.545C382.693 108.849 382.834 108.161 383.013 107.497C383.186 106.901 383.412 106.309 383.755 105.797L383.872 105.827V105.826Z" fill="black"/>
<path d="M369.069 123.99C368.203 120.043 368.426 115.798 369.664 111.967C370.478 109.582 371.708 107.4 372.992 105.283C373.112 105.098 373.27 104.84 373.39 104.66C374.484 103.008 375.688 101.423 377.109 100.08C378.742 98.5553 380.695 97.4076 382.78 96.7682C383.112 96.6689 383.5 96.5691 383.838 96.4973C384.9 96.2599 385.991 96.1021 387.079 96.1425C390.671 96.2178 393.641 98.4383 395.072 101.954L394.968 102.019C394.84 101.833 394.674 101.603 394.542 101.428C394.256 101.045 393.944 100.679 393.622 100.332C391.884 98.4645 389.682 97.454 387.232 97.4712C386.175 97.4704 385.125 97.6394 384.082 97.8509C383.318 98.0023 382.557 98.2065 381.822 98.4805C380.764 98.8735 379.752 99.4097 378.798 100.04C376.265 101.704 374.004 103.948 372.566 106.767C371.547 108.707 370.963 110.864 370.444 113.002C370.429 113.062 370.412 113.12 370.4 113.18L370.361 113.358L370.279 113.715L370.238 113.893C370.224 113.952 370.209 114.011 370.197 114.071C369.687 116.34 369.38 118.653 369.265 120.988C369.241 121.458 369.22 122.002 369.209 122.475C369.199 122.972 369.192 123.472 369.188 123.975L369.069 123.99L369.069 123.99Z" fill="black"/>
<path d="M414.872 105.826C414.965 106.45 414.96 107.054 414.935 107.67C414.901 108.265 414.868 108.858 414.729 109.435C414.659 109.728 414.561 110.015 414.476 110.304C414.19 111.168 414.188 112.095 414.366 112.984C414.421 113.28 414.483 113.576 414.533 113.874C414.614 114.387 414.695 115.117 414.774 115.636C414.855 116.213 414.896 116.817 414.919 117.401C414.941 117.994 414.952 118.615 414.934 119.207C414.923 119.514 414.911 119.823 414.871 120.142L414.754 120.172C414.546 119.836 414.388 119.488 414.24 119.126C413.765 117.916 413.493 116.607 413.514 115.291C413.515 115.059 413.524 114.597 413.532 114.366C413.55 113.901 413.624 113.44 413.709 112.985C413.822 112.384 413.903 111.777 413.893 111.165C413.888 110.622 413.78 110.085 413.743 109.545C413.693 108.849 413.834 108.161 414.013 107.497C414.186 106.901 414.412 106.309 414.755 105.797L414.872 105.827V105.826Z" fill="black"/>
<path d="M400.069 123.99C399.203 120.043 399.426 115.798 400.664 111.967C401.478 109.582 402.708 107.4 403.992 105.283C404.112 105.098 404.27 104.84 404.39 104.66C405.484 103.008 406.688 101.423 408.109 100.08C409.742 98.5553 411.695 97.4076 413.78 96.7682C414.112 96.6689 414.5 96.5691 414.838 96.4973C415.9 96.2599 416.991 96.1021 418.079 96.1425C421.671 96.2178 424.641 98.4383 426.072 101.954L425.968 102.019C425.84 101.833 425.674 101.603 425.542 101.428C425.256 101.045 424.944 100.679 424.622 100.332C422.884 98.4645 420.682 97.454 418.232 97.4712C417.175 97.4704 416.125 97.6394 415.082 97.8509C414.318 98.0023 413.557 98.2065 412.822 98.4805C411.764 98.8735 410.752 99.4097 409.798 100.04C407.265 101.704 405.004 103.948 403.566 106.767C402.547 108.707 401.963 110.864 401.444 113.002C401.429 113.062 401.412 113.12 401.4 113.18L401.361 113.358L401.279 113.715L401.238 113.893C401.224 113.952 401.209 114.011 401.197 114.071C400.687 116.34 400.38 118.653 400.265 120.988C400.241 121.458 400.22 122.002 400.209 122.475C400.199 122.972 400.192 123.472 400.188 123.975L400.069 123.99L400.069 123.99Z" fill="black"/>
<path d="M468.73 112.71C468.122 112.969 467.028 113.059 466.395 112.898C466.016 112.799 465.638 112.594 465.252 112.548C465.06 112.521 464.867 112.522 464.673 112.542C464.285 112.578 463.9 112.726 463.518 112.809C463.351 112.849 463.115 112.878 462.944 112.903C462.563 112.959 462.183 113.024 461.799 113.03C461.215 113.039 460.633 112.988 460.056 112.873C459.858 112.83 459.66 112.784 459.458 112.71L459.447 112.596C459.63 112.471 459.817 112.376 460.005 112.289C460.747 111.964 461.535 111.773 462.328 111.791C462.722 111.81 463.115 111.825 463.507 111.891C463.704 111.926 463.899 111.98 464.094 112.033C464.48 112.139 464.866 112.209 465.261 112.181C465.65 112.16 466.046 111.994 466.441 111.947C466.836 111.899 467.226 111.978 467.611 112.075C468.007 112.187 468.387 112.335 468.741 112.596L468.73 112.71L468.73 112.71Z" fill="black"/>
<path d="M464.721 104.893C464.478 106.82 464.178 108.716 463.977 110.645C463.808 112.213 463.353 113.775 463.544 115.368C463.565 115.524 463.591 115.718 463.621 115.874C463.657 116.039 463.686 116.209 463.733 116.37C463.933 117.159 464.304 117.872 464.695 118.544C464.791 118.707 464.895 118.87 464.999 119.024C465.34 119.526 465.735 119.965 466.2 120.275C466.9 120.726 467.73 120.947 468.521 120.984C470.133 121.051 471.464 120.039 471.989 118.238C472.066 117.981 472.129 117.713 472.168 117.444L472.266 117.439C472.314 117.727 472.321 118.017 472.306 118.311C472.259 119.217 471.947 120.112 471.411 120.784C470.494 121.958 469.029 122.403 467.714 122.123C466.934 121.965 466.175 121.618 465.538 121.063C464.9 120.519 464.423 119.764 464.111 118.924C463.915 118.413 463.735 117.84 463.598 117.302C463.391 116.478 463.262 115.631 463.189 114.778C463.066 113.367 462.984 111.936 463.107 110.522C463.159 109.956 463.246 109.394 463.35 108.838C463.623 107.452 464.02 106.092 464.629 104.856L464.721 104.893L464.721 104.893Z" fill="black"/>
<path d="M449.446 112.71C448.797 112.969 447.63 113.059 446.955 112.898C446.551 112.799 446.147 112.594 445.736 112.548C445.531 112.521 445.324 112.522 445.118 112.542C444.704 112.578 444.293 112.726 443.886 112.809C443.708 112.849 443.456 112.878 443.274 112.903C442.868 112.959 442.462 113.024 442.052 113.03C441.43 113.039 440.809 112.988 440.193 112.873C439.982 112.83 439.771 112.784 439.555 112.71L439.543 112.596C439.739 112.471 439.938 112.376 440.139 112.289C440.93 111.964 441.771 111.773 442.617 111.791C443.037 111.81 443.456 111.825 443.874 111.891C444.085 111.926 444.293 111.98 444.5 112.033C444.912 112.139 445.324 112.209 445.745 112.181C446.16 112.16 446.583 111.994 447.004 111.947C447.425 111.899 447.841 111.978 448.251 112.075C448.674 112.187 449.08 112.335 449.457 112.596L449.445 112.71L449.446 112.71Z" fill="black"/>
<path d="M445.169 104.893C444.91 106.82 444.59 108.716 444.375 110.645C444.196 112.213 443.71 113.775 443.914 115.368C443.936 115.524 443.964 115.718 443.996 115.874C444.034 116.039 444.065 116.209 444.116 116.37C444.328 117.159 444.724 117.872 445.142 118.544C445.244 118.707 445.354 118.87 445.466 119.024C445.829 119.526 446.251 119.965 446.747 120.275C447.493 120.726 448.379 120.947 449.222 120.984C450.942 121.051 452.362 120.039 452.922 118.238C453.004 117.981 453.071 117.713 453.113 117.444L453.217 117.439C453.268 117.727 453.276 118.017 453.26 118.311C453.209 119.217 452.877 120.112 452.305 120.784C451.327 121.958 449.765 122.403 448.362 122.123C447.53 121.965 446.72 121.618 446.04 121.063C445.36 120.519 444.852 119.764 444.519 118.924C444.309 118.413 444.117 117.84 443.971 117.302C443.751 116.478 443.613 115.631 443.535 114.778C443.404 113.367 443.317 111.936 443.447 110.522C443.502 109.956 443.595 109.394 443.707 108.838C443.997 107.452 444.421 106.092 445.071 104.856L445.169 104.893L445.169 104.893Z" fill="black"/>
<g clip-path="url(#clip4_24_1700)">
<path d="M380.429 158.819C380.759 159.426 380.975 160.087 381.148 160.751C381.308 161.411 381.446 162.079 381.455 162.76C381.462 163.1 381.434 163.444 381.412 163.786C381.387 164.129 381.37 164.469 381.38 164.806C381.396 165.651 381.577 166.489 381.746 167.321C381.881 167.99 381.928 168.67 381.977 169.349C382.042 170.196 382.032 171.048 381.933 171.892C381.841 172.741 381.687 173.586 381.444 174.406C381.393 174.572 381.338 174.736 381.276 174.9L381.165 174.892C381.129 174.72 381.101 174.55 381.076 174.38C380.976 173.708 380.92 173.034 380.877 172.36C380.84 171.693 380.808 171.026 380.823 170.359C380.828 169.976 380.855 169.495 380.875 169.11C380.9 168.526 380.917 167.937 380.983 167.355C381.018 167.028 381.058 166.671 381.078 166.345C381.107 165.842 381.095 165.336 381.023 164.837C380.932 164.171 380.684 163.523 380.532 162.871C380.456 162.545 380.407 162.215 380.373 161.882C380.271 160.87 380.204 159.86 380.32 158.839L380.43 158.819H380.429Z" fill="black"/>
<path d="M375.319 148.931C378.56 150.071 381.544 152.048 383.68 154.751C384.439 155.714 385.091 156.755 385.611 157.867C386.028 158.759 386.35 159.661 386.648 160.583C387.289 162.584 387.785 164.628 388.297 166.66C389.018 169.557 389.852 172.614 390.572 175.516C391.04 177.357 391.467 179.217 391.949 181.051C391.985 181.177 392.02 181.3 392.067 181.412L392.071 181.419C392.072 181.422 392.073 181.423 392.073 181.423C392.073 181.423 392.075 181.426 392.074 181.423C392.072 181.42 392.072 181.419 392.069 181.413C392.06 181.4 392.062 181.402 392.042 181.378C392.029 181.364 391.998 181.328 391.913 181.293C391.819 181.244 391.629 181.286 391.565 181.36C391.498 181.423 391.491 181.455 391.479 181.479C391.471 181.498 391.468 181.51 391.466 181.516L391.464 181.527C391.463 181.529 391.463 181.526 391.463 181.521C391.459 181.376 391.439 181.231 391.42 181.082C391.32 180.333 391.205 179.57 391.121 178.815C390.437 173.077 391.066 167.175 392.976 161.715C394.053 158.626 395.575 155.692 397.437 153.002C398.406 151.575 399.472 150.209 400.641 148.946L400.727 149.016C398.965 151.487 397.421 154.103 396.105 156.83C394.484 160.229 393.365 163.834 392.669 167.523C392.252 169.731 391.969 171.976 391.904 174.223C391.838 176.483 392.007 178.751 392.18 181.01C392.19 181.214 392.212 181.422 392.185 181.632C392.183 181.646 392.18 181.66 392.176 181.678C392.171 181.696 392.165 181.719 392.153 181.749C392.135 181.784 392.123 181.827 392.048 181.898C391.975 181.981 391.771 182.023 391.666 181.971C391.569 181.931 391.53 181.887 391.509 181.864C391.42 181.765 391.381 181.625 391.349 181.507C391.231 181.032 391.156 180.553 391.069 180.08C390.805 178.581 390.535 177.086 390.206 175.6C389.571 172.624 388.688 169.712 387.707 166.831C387.203 165.341 386.03 161.798 385.522 160.36C385.43 160.1 385.331 159.824 385.235 159.566C384.558 157.695 383.557 155.952 382.27 154.421C381.64 153.673 380.949 152.974 380.212 152.33C378.716 151.024 377.049 149.96 375.275 149.033L375.319 148.931Z" fill="black"/>
</g>
<g clip-path="url(#clip5_24_1700)">
<path d="M409.429 158.819C409.759 159.426 409.975 160.087 410.148 160.751C410.308 161.411 410.446 162.079 410.455 162.76C410.462 163.1 410.434 163.444 410.412 163.786C410.387 164.129 410.37 164.469 410.38 164.806C410.396 165.651 410.577 166.489 410.746 167.321C410.881 167.99 410.928 168.67 410.977 169.349C411.042 170.196 411.032 171.048 410.933 171.892C410.841 172.741 410.687 173.586 410.444 174.406C410.393 174.572 410.338 174.736 410.276 174.9L410.165 174.892C410.129 174.72 410.101 174.55 410.076 174.38C409.976 173.708 409.92 173.034 409.877 172.36C409.84 171.693 409.808 171.026 409.823 170.359C409.828 169.976 409.855 169.495 409.875 169.11C409.9 168.526 409.917 167.937 409.983 167.355C410.018 167.028 410.058 166.671 410.078 166.345C410.107 165.842 410.095 165.336 410.023 164.837C409.932 164.171 409.684 163.523 409.532 162.871C409.456 162.545 409.407 162.215 409.373 161.882C409.271 160.87 409.204 159.86 409.32 158.839L409.43 158.819H409.429Z" fill="black"/>
<path d="M404.319 148.931C407.56 150.071 410.544 152.048 412.68 154.751C413.439 155.714 414.091 156.755 414.611 157.867C415.028 158.759 415.35 159.661 415.648 160.583C416.289 162.584 416.785 164.628 417.297 166.66C418.018 169.557 418.852 172.614 419.572 175.516C420.04 177.357 420.467 179.217 420.949 181.051C420.985 181.177 421.02 181.3 421.067 181.412L421.071 181.419C421.072 181.422 421.073 181.423 421.073 181.423C421.073 181.423 421.075 181.426 421.074 181.423C421.072 181.42 421.072 181.419 421.069 181.413C421.06 181.4 421.062 181.402 421.042 181.378C421.029 181.364 420.998 181.328 420.913 181.293C420.819 181.244 420.629 181.286 420.565 181.36C420.498 181.423 420.491 181.455 420.479 181.479C420.471 181.498 420.468 181.51 420.466 181.516L420.464 181.527C420.463 181.529 420.463 181.526 420.463 181.521C420.459 181.376 420.439 181.231 420.42 181.082C420.32 180.333 420.205 179.57 420.121 178.815C419.437 173.077 420.066 167.175 421.976 161.715C423.053 158.626 424.575 155.692 426.437 153.002C427.406 151.575 428.472 150.209 429.641 148.946L429.727 149.016C427.965 151.487 426.421 154.103 425.105 156.83C423.484 160.229 422.365 163.834 421.669 167.523C421.252 169.731 420.969 171.976 420.904 174.223C420.838 176.483 421.007 178.751 421.18 181.01C421.19 181.214 421.212 181.422 421.185 181.632C421.183 181.646 421.18 181.66 421.176 181.678C421.171 181.696 421.165 181.719 421.153 181.749C421.135 181.784 421.123 181.827 421.048 181.898C420.975 181.981 420.771 182.023 420.666 181.971C420.569 181.931 420.53 181.887 420.509 181.864C420.42 181.765 420.381 181.625 420.349 181.507C420.231 181.032 420.156 180.553 420.069 180.08C419.805 178.581 419.535 177.086 419.206 175.6C418.571 172.624 417.688 169.712 416.707 166.831C416.203 165.341 415.03 161.798 414.522 160.36C414.43 160.1 414.331 159.824 414.235 159.566C413.558 157.695 412.557 155.952 411.27 154.421C410.64 153.673 409.949 152.974 409.212 152.33C407.716 151.024 406.049 149.96 404.275 149.033L404.319 148.931Z" fill="black"/>
</g>
<path d="M443.929 160.887C444.349 162.309 444.63 163.776 444.807 165.254C445.047 167.322 445.064 169.409 445.095 171.487C445.108 172.669 445.101 173.864 445.049 175.046L445.038 175.273L445.03 175.391L445.024 175.461L445.021 175.489C445.017 175.505 445.022 175.502 445.003 175.576C444.34 176.241 444.109 175.235 444.252 175.559C444.23 175.466 444.222 175.36 444.211 175.268C444.125 174.296 444.114 173.32 444.125 172.347C444.181 169.962 444.32 167.572 444.893 165.253C445.043 164.672 445.224 164.1 445.462 163.55C445.815 162.717 446.331 161.916 447.018 161.334C447.728 160.718 448.646 160.268 449.591 160.407C451.04 160.62 451.964 162.046 452.459 163.388C452.908 164.579 452.791 165.448 452.706 166.666C452.648 167.507 452.625 168.442 452.616 169.29C452.605 170.227 452.584 171.181 452.666 172.103C452.703 172.507 452.768 172.922 452.878 173.312C453.237 174.612 454.207 175.885 455.514 176.136C457.39 176.516 458.5 175.03 458.738 173.201C458.768 172.984 458.784 172.766 458.79 172.546L458.886 172.541C458.923 172.838 458.933 173.14 458.918 173.442C458.851 175.087 457.965 176.621 456.331 176.862C455.717 176.956 455.082 176.873 454.507 176.632C453.467 176.178 452.666 175.244 452.191 174.181C451.886 173.493 451.73 172.718 451.66 171.991C451.568 171.089 451.573 170.177 451.581 169.274C451.587 168.685 451.601 168.065 451.635 167.479C451.651 167.187 451.675 166.871 451.701 166.579C451.765 165.787 451.919 164.883 451.704 164.114C451.441 163.112 450.917 162.011 450.07 161.462C449.45 161.064 448.703 161.12 448.052 161.432C446.535 162.135 445.669 163.722 445.204 165.348C444.309 168.524 444.505 171.92 444.968 175.158L444.985 175.261L444.994 175.309C444.997 175.323 445.001 175.339 445.002 175.342C445.145 175.652 444.92 174.683 444.26 175.328C444.243 175.393 444.249 175.381 444.246 175.387C444.246 175.391 444.246 175.388 444.246 175.387L444.247 175.347L444.247 175.244C444.241 174.004 444.225 172.725 444.239 171.488C444.239 169.804 444.299 166.955 444.221 165.306C444.161 163.835 444.021 162.375 443.835 160.908L443.929 160.886V160.887Z" fill="black"/>
<path d="M463.929 160.887C464.349 162.309 464.63 163.776 464.807 165.254C465.047 167.322 465.064 169.409 465.095 171.487C465.108 172.669 465.101 173.864 465.049 175.046L465.038 175.273L465.03 175.391L465.024 175.461L465.021 175.489C465.017 175.505 465.022 175.502 465.003 175.576C464.34 176.241 464.109 175.235 464.252 175.559C464.23 175.466 464.222 175.36 464.211 175.268C464.125 174.296 464.114 173.32 464.125 172.347C464.181 169.962 464.32 167.572 464.893 165.253C465.043 164.672 465.224 164.1 465.462 163.55C465.815 162.717 466.331 161.916 467.018 161.334C467.728 160.718 468.646 160.268 469.591 160.407C471.04 160.62 471.964 162.046 472.459 163.388C472.908 164.579 472.791 165.448 472.706 166.666C472.648 167.507 472.625 168.442 472.616 169.29C472.605 170.227 472.584 171.181 472.666 172.103C472.703 172.507 472.768 172.922 472.878 173.312C473.237 174.612 474.207 175.885 475.514 176.136C477.39 176.516 478.5 175.03 478.738 173.201C478.768 172.984 478.784 172.766 478.79 172.546L478.886 172.541C478.923 172.838 478.933 173.14 478.918 173.442C478.851 175.087 477.965 176.621 476.331 176.862C475.717 176.956 475.082 176.873 474.507 176.632C473.467 176.178 472.666 175.244 472.191 174.181C471.886 173.493 471.73 172.718 471.66 171.991C471.568 171.089 471.573 170.177 471.581 169.274C471.587 168.685 471.601 168.065 471.635 167.479C471.651 167.187 471.675 166.871 471.701 166.579C471.765 165.787 471.919 164.883 471.704 164.114C471.441 163.112 470.917 162.011 470.07 161.462C469.45 161.064 468.703 161.12 468.052 161.432C466.535 162.135 465.669 163.722 465.204 165.348C464.309 168.524 464.505 171.92 464.968 175.158L464.985 175.261L464.994 175.309C464.997 175.323 465.001 175.339 465.002 175.342C465.145 175.652 464.92 174.683 464.26 175.328C464.243 175.393 464.249 175.381 464.246 175.387C464.246 175.391 464.246 175.388 464.246 175.387L464.247 175.347L464.247 175.244C464.241 174.004 464.225 172.725 464.239 171.488C464.239 169.804 464.299 166.955 464.221 165.306C464.161 163.835 464.021 162.375 463.835 160.908L463.929 160.886V160.887Z" fill="black"/>
<path d="M88.9464 152.287C88.4869 151.999 87.9611 151.802 87.4178 151.788C86.5087 151.753 85.76 152.281 85.2447 153.003C84.7155 153.739 84.3828 154.414 84.2569 155.32C84.2188 155.584 84.1931 155.873 84.2158 156.13C84.2222 156.202 84.2431 156.328 84.2735 156.367C84.2735 156.369 84.2732 156.365 84.2723 156.365C84.2713 156.363 84.2707 156.364 84.2686 156.36C84.2667 156.357 84.2643 156.355 84.2615 156.353C84.2588 156.352 84.2551 156.346 84.2511 156.344C84.2357 156.333 84.2084 156.322 84.1894 156.32C84.17 156.317 84.1621 156.319 84.1654 156.317C84.2827 156.272 84.3831 156.18 84.4883 156.1C84.6885 155.936 84.9172 155.738 85.1471 155.596C85.5292 155.35 85.954 155.174 86.3908 155.058C87.3792 154.805 88.5305 154.84 89.4968 155.172C90.1276 155.406 90.6503 155.862 91.0481 156.387C91.9855 157.653 92.387 159.183 92.6685 160.702C92.9819 162.501 93.0503 164.357 92.763 166.165C92.5755 167.343 92.2222 168.505 91.6614 169.558C90.9088 170.98 89.7592 172.187 88.3583 172.971C85.303 174.679 81.2765 174.398 78.5851 172.103C78.1309 171.718 77.7214 171.275 77.3607 170.801C76.7588 170.02 76.225 169.175 75.9301 168.211C75.1876 165.844 76.2588 163.464 78.3331 162.227C79.068 161.804 79.9287 161.608 80.7715 161.654L80.7728 161.747C80.1819 161.797 79.607 161.952 79.0888 162.211C78.5713 162.462 78.1204 162.843 77.7312 163.265C76.9651 164.09 76.4595 165.18 76.4393 166.318C76.3902 167.921 77.2892 169.295 78.2948 170.466C80.6445 173.185 84.8156 173.89 87.9737 172.243C90.96 170.674 92.4926 167.653 92.6476 164.329C92.7231 162.838 92.5454 161.333 92.1227 159.901C91.7123 158.564 91.0785 157.095 89.9391 156.257C89.49 155.925 88.9885 155.808 88.448 155.754C87.6346 155.673 86.7668 155.742 86.0203 156.06C85.7741 156.165 85.5433 156.299 85.3269 156.459C84.9135 156.754 84.3772 157.347 83.8257 156.994C83.3158 156.64 83.457 155.718 83.5506 155.196C83.6691 154.563 83.8978 153.943 84.2477 153.404C84.8588 152.462 85.6701 151.572 86.8466 151.46C87.4737 151.396 88.1125 151.588 88.6355 151.934C88.7644 152.018 88.8866 152.11 89.0014 152.211L88.9464 152.286V152.287Z" fill="black"/>
<path d="M110.478 152.287C110.067 151.999 109.597 151.802 109.111 151.788C108.297 151.753 107.627 152.281 107.166 153.003C106.693 153.739 106.395 154.414 106.282 155.32C106.248 155.584 106.225 155.873 106.246 156.13C106.251 156.202 106.27 156.328 106.297 156.367C106.297 156.369 106.297 156.365 106.296 156.365C106.295 156.363 106.295 156.364 106.293 156.36C106.291 156.357 106.289 156.355 106.287 156.353C106.284 156.352 106.281 156.346 106.277 156.344C106.264 156.333 106.239 156.322 106.222 156.32C106.205 156.317 106.198 156.319 106.201 156.317C106.306 156.272 106.395 156.18 106.49 156.1C106.669 155.936 106.873 155.738 107.079 155.596C107.421 155.35 107.801 155.174 108.192 155.058C109.076 154.805 110.106 154.84 110.971 155.172C111.535 155.406 112.003 155.862 112.359 156.387C113.198 157.653 113.557 159.183 113.809 160.702C114.089 162.501 114.15 164.357 113.893 166.165C113.725 167.343 113.409 168.505 112.908 169.558C112.234 170.98 111.206 172.187 109.952 172.971C107.218 174.679 103.616 174.398 101.208 172.103C100.801 171.718 100.435 171.275 100.112 170.801C99.5737 170.02 99.0961 169.175 98.8322 168.211C98.1678 165.844 99.1263 163.464 100.982 162.227C101.64 161.804 102.41 161.608 103.164 161.654L103.165 161.747C102.636 161.797 102.122 161.952 101.658 162.211C101.195 162.462 100.792 162.843 100.444 163.265C99.7582 164.09 99.3059 165.18 99.2878 166.318C99.2438 167.921 100.048 169.295 100.948 170.466C103.05 173.185 106.782 173.89 109.608 172.243C112.28 170.674 113.651 167.653 113.79 164.329C113.858 162.838 113.699 161.333 113.32 159.901C112.953 158.564 112.386 157.095 111.367 156.257C110.965 155.925 110.516 155.808 110.032 155.754C109.305 155.673 108.528 155.742 107.86 156.06C107.64 156.165 107.433 156.299 107.24 156.459C106.87 156.754 106.39 157.347 105.897 156.994C105.44 156.64 105.567 155.718 105.651 155.196C105.757 154.563 105.961 153.943 106.274 153.404C106.821 152.462 107.547 151.572 108.6 151.46C109.161 151.396 109.732 151.588 110.2 151.934C110.316 152.018 110.425 152.11 110.528 152.211L110.478 152.286V152.287Z" fill="black"/>
<path d="M136.808 156.996C136.518 156.774 136.186 156.621 135.843 156.61C135.269 156.583 134.796 156.992 134.47 157.551C134.136 158.12 133.926 158.643 133.846 159.345C133.822 159.549 133.806 159.773 133.82 159.972C133.825 160.027 133.838 160.125 133.857 160.155C133.857 160.157 133.857 160.154 133.856 160.153C133.856 160.152 133.855 160.153 133.854 160.15C133.853 160.148 133.851 160.146 133.849 160.144C133.848 160.143 133.845 160.139 133.843 160.137C133.833 160.129 133.816 160.12 133.804 160.118C133.792 160.116 133.787 160.118 133.789 160.117C133.863 160.081 133.926 160.01 133.993 159.948C134.119 159.822 134.263 159.668 134.409 159.558C134.65 159.368 134.918 159.231 135.194 159.141C135.818 158.946 136.546 158.973 137.156 159.23C137.554 159.411 137.884 159.764 138.136 160.171C138.728 161.151 138.981 162.335 139.159 163.511C139.357 164.904 139.4 166.341 139.219 167.741C139.1 168.653 138.877 169.552 138.523 170.368C138.048 171.468 137.322 172.403 136.437 173.01C134.507 174.332 131.964 174.115 130.264 172.338C129.977 172.04 129.719 171.697 129.491 171.33C129.111 170.725 128.774 170.071 128.587 169.325C128.118 167.492 128.795 165.65 130.105 164.692C130.569 164.365 131.113 164.213 131.645 164.248L131.646 164.32C131.273 164.359 130.91 164.479 130.582 164.68C130.256 164.874 129.971 165.169 129.725 165.496C129.241 166.135 128.922 166.978 128.909 167.859C128.878 169.1 129.446 170.164 130.081 171.07C131.565 173.175 134.199 173.721 136.194 172.446C138.08 171.232 139.048 168.893 139.146 166.319C139.194 165.165 139.081 163.999 138.814 162.891C138.555 161.856 138.155 160.719 137.435 160.07C137.152 159.813 136.835 159.722 136.493 159.681C135.98 159.618 135.432 159.671 134.96 159.917C134.805 159.999 134.659 160.103 134.522 160.226C134.261 160.454 133.922 160.914 133.574 160.641C133.252 160.367 133.341 159.653 133.4 159.248C133.475 158.758 133.62 158.279 133.841 157.861C134.227 157.132 134.739 156.443 135.482 156.356C135.878 156.306 136.282 156.456 136.612 156.723C136.693 156.788 136.77 156.86 136.843 156.937L136.808 156.995V156.996Z" fill="black"/>
<path d="M156.542 156.996C156.228 156.774 155.868 156.621 155.496 156.61C154.874 156.583 154.362 156.992 154.009 157.551C153.647 158.12 153.42 158.643 153.334 159.345C153.308 159.549 153.29 159.773 153.306 159.972C153.31 160.027 153.324 160.125 153.345 160.155C153.345 160.157 153.345 160.154 153.344 160.153C153.344 160.152 153.343 160.153 153.342 160.15C153.34 160.148 153.339 160.146 153.337 160.144C153.335 160.143 153.332 160.139 153.33 160.137C153.319 160.129 153.3 160.12 153.287 160.118C153.274 160.116 153.269 160.118 153.271 160.117C153.351 160.081 153.42 160.01 153.492 159.948C153.629 159.822 153.785 159.668 153.943 159.558C154.204 159.368 154.495 159.231 154.794 159.141C155.47 158.946 156.258 158.973 156.919 159.23C157.35 159.411 157.708 159.764 157.98 160.171C158.622 161.151 158.896 162.335 159.089 163.511C159.303 164.904 159.35 166.341 159.154 167.741C159.025 168.653 158.784 169.552 158.4 170.368C157.885 171.468 157.098 172.403 156.14 173.01C154.049 174.332 151.294 174.115 149.453 172.338C149.142 172.04 148.862 171.697 148.615 171.33C148.203 170.725 147.838 170.071 147.636 169.325C147.128 167.492 147.861 165.65 149.281 164.692C149.783 164.365 150.372 164.213 150.949 164.248L150.95 164.32C150.545 164.359 150.152 164.479 149.798 164.68C149.444 164.874 149.135 165.169 148.869 165.496C148.345 166.135 147.999 166.978 147.985 167.859C147.951 169.1 148.566 170.164 149.254 171.07C150.862 173.175 153.716 173.721 155.877 172.446C157.92 171.232 158.969 168.893 159.075 166.319C159.126 165.165 159.005 163.999 158.716 162.891C158.435 161.856 158.001 160.719 157.221 160.07C156.914 159.813 156.571 159.722 156.201 159.681C155.645 159.618 155.051 159.671 154.54 159.917C154.372 159.999 154.214 160.103 154.066 160.226C153.783 160.454 153.416 160.914 153.039 160.641C152.69 160.367 152.786 159.653 152.85 159.248C152.931 158.758 153.088 158.279 153.327 157.861C153.746 157.132 154.301 156.443 155.106 156.356C155.535 156.306 155.972 156.456 156.33 156.723C156.418 156.788 156.501 156.86 156.58 156.937L156.542 156.995V156.996Z" fill="black"/>
<path d="M288.007 149.574C287.641 151.759 287.193 154.079 286.856 156.265C286.801 156.568 286.747 156.91 286.692 157.216C286.521 158.163 286.336 159.127 286.221 160.086C286.114 160.97 286.079 161.868 286.089 162.76C286.11 164.304 286.315 165.844 286.448 167.379C286.541 168.48 286.627 169.672 286.748 170.765C286.862 171.695 286.934 172.618 287.203 173.491C287.283 173.708 287.349 173.873 287.52 173.984C288.211 174.383 289.328 173.547 289.904 173.095C290.49 172.625 291.038 172.099 291.571 171.554L291.639 171.617C290.907 172.879 289.61 174.559 288.266 174.937C287.702 175.099 287.028 174.954 286.654 174.42C286.056 173.574 285.922 171.921 285.834 170.869C285.729 169.243 285.68 167.58 285.708 165.952C285.743 164.482 285.808 163.002 285.84 161.531C285.852 160.875 285.862 160.22 285.869 159.564C285.877 158.577 285.903 157.583 286.017 156.603C286.09 155.949 286.209 155.303 286.338 154.66C286.565 153.538 286.859 152.43 287.22 151.353C287.429 150.738 287.656 150.131 287.924 149.543L288.007 149.574H288.007Z" fill="black"/>
<path d="M285.507 160.961C284.759 160.323 283.866 159.812 282.904 159.874C282.152 159.921 281.463 160.36 280.894 160.908C280.218 161.553 279.621 162.293 279.088 163.103C279.019 163.205 278.93 163.354 278.865 163.46C278.801 163.562 278.721 163.722 278.662 163.83C278.216 164.712 277.952 165.713 277.889 166.724C277.857 167.297 277.887 167.889 277.931 168.458C278.043 169.75 278.362 171.05 279.214 171.963C279.766 172.549 280.451 172.999 281.19 173.202C282.83 173.64 284.318 172.692 285.278 171.218C285.355 171.101 285.43 170.98 285.499 170.856L285.58 170.894C285.471 171.334 285.292 171.751 285.073 172.138C283.927 174.179 281.671 174.863 279.767 173.711C278.304 172.841 277.452 171.227 277.337 169.399C277.296 168.786 277.337 168.171 277.403 167.568C277.574 165.766 278.154 164.043 278.919 162.457C279.297 161.656 279.762 160.852 280.379 160.24C281.273 159.352 282.42 158.874 283.604 159.251C284.142 159.426 284.647 159.764 285.046 160.198C285.244 160.411 285.421 160.643 285.571 160.893L285.507 160.961H285.507Z" fill="black"/>
<path d="M304.273 149.574C303.932 151.759 303.513 154.079 303.199 156.265C303.148 156.568 303.097 156.91 303.045 157.216C302.886 158.163 302.714 159.127 302.606 160.086C302.506 160.97 302.474 161.868 302.483 162.76C302.503 164.304 302.694 165.844 302.818 167.379C302.905 168.48 302.985 169.672 303.098 170.765C303.204 171.695 303.271 172.618 303.523 173.491C303.598 173.708 303.659 173.873 303.818 173.984C304.463 174.383 305.506 173.547 306.044 173.095C306.59 172.625 307.102 172.099 307.6 171.554L307.663 171.617C306.98 172.879 305.77 174.559 304.515 174.937C303.988 175.099 303.36 174.954 303.011 174.42C302.452 173.574 302.327 171.921 302.245 170.869C302.147 169.243 302.101 167.58 302.128 165.952C302.16 164.482 302.221 163.002 302.25 161.531C302.262 160.875 302.271 160.22 302.277 159.564C302.285 158.577 302.31 157.583 302.416 156.603C302.484 155.949 302.595 155.303 302.715 154.66C302.927 153.538 303.202 152.43 303.539 151.353C303.734 150.738 303.945 150.131 304.196 149.543L304.273 149.574H304.273Z" fill="black"/>
<path d="M301.94 160.961C301.242 160.323 300.408 159.812 299.511 159.874C298.809 159.921 298.166 160.36 297.634 160.908C297.004 161.553 296.446 162.293 295.949 163.103C295.885 163.205 295.801 163.354 295.741 163.46C295.681 163.562 295.607 163.722 295.551 163.83C295.135 164.712 294.889 165.713 294.83 166.724C294.8 167.297 294.828 167.889 294.869 168.458C294.974 169.75 295.271 171.05 296.067 171.963C296.581 172.549 297.221 172.999 297.91 173.202C299.441 173.64 300.83 172.692 301.726 171.218C301.798 171.101 301.868 170.98 301.932 170.856L302.008 170.894C301.906 171.334 301.739 171.751 301.535 172.138C300.465 174.179 298.359 174.863 296.583 173.711C295.217 172.841 294.422 171.227 294.315 169.399C294.276 168.786 294.315 168.171 294.376 167.568C294.536 165.766 295.077 164.043 295.791 162.457C296.144 161.656 296.578 160.852 297.154 160.24C297.988 159.352 299.058 158.874 300.164 159.251C300.666 159.426 301.138 159.764 301.51 160.198C301.694 160.411 301.86 160.643 302 160.893L301.94 160.961H301.94Z" fill="black"/>
<g clip-path="url(#clip6_24_1700)">
<path d="M228.017 165.417C228.164 164.987 228.215 164.209 228.097 163.772C228.062 163.643 228.007 163.514 227.959 163.383C227.856 163.127 227.819 162.856 227.857 162.579C227.884 162.373 227.953 162.176 228.017 161.982C228.082 161.793 228.126 161.595 228.165 161.399C228.193 161.269 228.266 160.95 228.285 160.821C228.355 160.36 228.358 159.879 228.326 159.406C228.313 159.262 228.3 159.116 228.268 158.961L228.191 158.932C227.818 159.333 227.588 159.884 227.467 160.448C227.41 160.727 227.408 161.015 227.41 161.3C227.413 161.428 227.413 161.603 227.432 161.728C227.477 162.081 227.601 162.423 227.601 162.783C227.623 163.146 227.471 163.488 227.429 163.842C227.389 164.24 227.525 164.73 227.696 165.074C227.764 165.206 227.839 165.329 227.939 165.439L228.018 165.418L228.017 165.417Z" fill="black"/>
<path d="M222.911 167.269C222.549 168.608 222.734 170.056 223.475 171.172C224.011 171.995 224.75 172.586 225.493 173.121C226.463 173.8 227.547 174.257 228.661 174.479C229.272 174.597 229.897 174.65 230.515 174.636C231.246 174.616 231.974 174.505 232.682 174.289C232.807 174.25 232.934 174.206 233.058 174.158C233.104 174.14 233.157 174.119 233.199 174.085L233.117 174.134C235.492 173.108 237.33 170.799 238.435 168.182C240.013 164.41 239.996 159.78 238.398 156.017C238.203 155.563 237.972 155.09 237.722 154.679C236.962 153.412 236.043 152.284 234.976 151.359C234.084 150.586 233.079 149.973 232.017 149.593L231.694 149.487C231.667 149.479 231.64 149.469 231.613 149.461C231.495 149.428 231.323 149.385 231.205 149.352C229.046 148.876 226.796 149.039 224.906 150.46C223.684 151.377 222.733 152.718 222.148 154.26C221.839 155.074 221.623 155.94 221.506 156.818C221.439 157.318 221.4 157.822 221.402 158.325L221.482 158.331C221.837 154.951 223.53 151.697 226.359 150.549C227.564 150.051 228.865 149.991 230.126 150.172C231.706 150.368 233.197 151.066 234.495 152.141C235.743 153.181 236.852 154.526 237.641 156.072C240.344 161.495 239.726 168.462 235.114 172.133C234.425 172.673 233.676 173.095 232.896 173.388L232.813 173.437C232.825 173.426 232.839 173.416 232.853 173.408C232.86 173.404 232.867 173.4 232.874 173.396C232.88 173.393 232.892 173.389 232.888 173.39L232.877 173.394L232.854 173.402C232.35 173.565 231.832 173.664 231.312 173.727C230.265 173.851 229.198 173.801 228.169 173.542C227.205 173.3 226.272 172.874 225.422 172.288C224.837 171.888 224.255 171.448 223.806 170.853C223.059 169.898 222.802 168.562 222.989 167.29L222.911 167.268L222.911 167.269Z" fill="black"/>
</g>
<g clip-path="url(#clip7_24_1700)">
<path d="M250.648 165.417C250.787 164.987 250.835 164.209 250.723 163.772C250.69 163.643 250.638 163.514 250.593 163.383C250.495 163.127 250.46 162.856 250.497 162.579C250.522 162.373 250.587 162.176 250.648 161.982C250.709 161.793 250.751 161.595 250.788 161.399C250.814 161.269 250.884 160.95 250.902 160.821C250.968 160.36 250.971 159.879 250.94 159.406C250.929 159.262 250.916 159.116 250.885 158.961L250.813 158.932C250.459 159.333 250.241 159.884 250.127 160.448C250.073 160.727 250.071 161.015 250.073 161.3C250.076 161.428 250.076 161.603 250.094 161.728C250.137 162.081 250.253 162.423 250.254 162.783C250.274 163.146 250.13 163.488 250.091 163.842C250.052 164.24 250.182 164.73 250.344 165.074C250.408 165.206 250.48 165.329 250.574 165.439L250.648 165.418L250.648 165.417Z" fill="black"/>
<path d="M245.81 167.269C245.468 168.608 245.643 170.056 246.344 171.172C246.853 171.995 247.552 172.586 248.256 173.121C249.176 173.8 250.202 174.257 251.258 174.479C251.836 174.597 252.429 174.65 253.014 174.636C253.707 174.616 254.396 174.505 255.067 174.289C255.186 174.25 255.306 174.206 255.423 174.158C255.467 174.14 255.517 174.119 255.557 174.085L255.479 174.134C257.729 173.108 259.47 170.799 260.517 168.182C262.013 164.41 261.996 159.78 260.482 156.017C260.297 155.563 260.079 155.09 259.842 154.679C259.122 153.412 258.252 152.284 257.241 151.359C256.396 150.586 255.444 149.973 254.437 149.593L254.131 149.487C254.106 149.479 254.08 149.469 254.055 149.461C253.943 149.428 253.78 149.385 253.668 149.352C251.622 148.876 249.491 149.039 247.7 150.46C246.543 151.377 245.642 152.718 245.087 154.26C244.795 155.074 244.59 155.94 244.479 156.818C244.416 157.318 244.379 157.822 244.381 158.325L244.456 158.331C244.793 154.951 246.397 151.697 249.077 150.549C250.218 150.051 251.451 149.991 252.645 150.172C254.142 150.368 255.555 151.066 256.784 152.141C257.967 153.181 259.018 154.526 259.765 156.072C262.326 161.495 261.74 168.462 257.371 172.133C256.718 172.673 256.009 173.095 255.27 173.388L255.192 173.437C255.203 173.426 255.216 173.416 255.229 173.408C255.236 173.404 255.242 173.4 255.249 173.396C255.255 173.393 255.266 173.389 255.262 173.39L255.252 173.394L255.23 173.402C254.753 173.565 254.262 173.664 253.769 173.727C252.777 173.851 251.767 173.801 250.791 173.542C249.879 173.3 248.994 172.874 248.189 172.288C247.635 171.888 247.084 171.448 246.658 170.853C245.95 169.898 245.707 168.562 245.884 167.29L245.81 167.268L245.81 167.269Z" fill="black"/>
</g>
<defs>
<clipPath id="clip0_24_1700">
<rect width="14" height="17" fill="white" transform="translate(128 106)"/>
</clipPath>
<clipPath id="clip1_24_1700">
<rect width="14" height="17" fill="white" transform="translate(146 106)"/>
</clipPath>
<clipPath id="clip2_24_1700">
<rect width="17" height="17" fill="white" transform="translate(277 106)"/>
</clipPath>
<clipPath id="clip3_24_1700">
<rect width="15" height="17" fill="white" transform="translate(296 106)"/>
</clipPath>
<clipPath id="clip4_24_1700">
<rect width="26" height="37" fill="white" transform="translate(375 149)"/>
</clipPath>
<clipPath id="clip5_24_1700">
<rect width="26" height="37" fill="white" transform="translate(404 149)"/>
</clipPath>
<clipPath id="clip6_24_1700">
<rect width="19" height="26" fill="white" transform="matrix(1 0 0 -1 221 175)"/>
</clipPath>
<clipPath id="clip7_24_1700">
<rect width="18" height="26" fill="white" transform="matrix(1 0 0 -1 244 175)"/>
</clipPath>
</defs>
</svg>
